<svg width="286" height="92" viewBox="0 0 286 92" fill="none" xmlns="http://www.w3.org/2000/svg">
<path d="M5.82955 5.45455C5.77841 5.02273 5.57102 4.6875 5.20739 4.44886C4.84375 4.21023 4.39773 4.09091 3.86932 4.09091C3.48295 4.09091 3.14489 4.15341 2.85511 4.27841C2.56818 4.40341 2.34375 4.57528 2.18182 4.79403C2.02273 5.01278 1.94318 5.26136 1.94318 5.53977C1.94318 5.77273 1.99858 5.97301 2.10938 6.14062C2.22301 6.3054 2.3679 6.44318 2.54403 6.55398C2.72017 6.66193 2.90483 6.75142 3.09801 6.82244C3.29119 6.89062 3.46875 6.94602 3.63068 6.98864L4.51705 7.22727C4.74432 7.28693 4.99716 7.36932 5.27557 7.47443C5.55682 7.57955 5.82528 7.72301 6.08097 7.90483C6.33949 8.08381 6.55256 8.31392 6.72017 8.59517C6.88778 8.87642 6.97159 9.22159 6.97159 9.63068C6.97159 10.1023 6.84801 10.5284 6.60085 10.9091C6.35653 11.2898 5.99858 11.5923 5.52699 11.8168C5.05824 12.0412 4.48864 12.1534 3.81818 12.1534C3.19318 12.1534 2.65199 12.0526 2.1946 11.8509C1.74006 11.6491 1.3821 11.3679 1.12074 11.0071C0.862216 10.6463 0.715909 10.2273 0.681818 9.75H1.77273C1.80114 10.0795 1.91193 10.3523 2.10511 10.5682C2.30114 10.7812 2.5483 10.9403 2.84659 11.0455C3.14773 11.1477 3.47159 11.1989 3.81818 11.1989C4.22159 11.1989 4.58381 11.1335 4.90483 11.0028C5.22585 10.8693 5.48011 10.6847 5.66761 10.4489C5.85511 10.2102 5.94886 9.93182 5.94886 9.61364C5.94886 9.32386 5.8679 9.08807 5.70597 8.90625C5.54403 8.72443 5.33097 8.5767 5.06676 8.46307C4.80256 8.34943 4.51705 8.25 4.21023 8.16477L3.13636 7.85795C2.45455 7.66193 1.91477 7.3821 1.51705 7.01847C1.11932 6.65483 0.920455 6.17898 0.920455 5.59091C0.920455 5.10227 1.05256 4.67614 1.31676 4.3125C1.58381 3.94602 1.94176 3.66193 2.39062 3.46023C2.84233 3.25568 3.34659 3.15341 3.90341 3.15341C4.46591 3.15341 4.96591 3.25426 5.40341 3.45597C5.84091 3.65483 6.1875 3.92756 6.44318 4.27415C6.7017 4.62074 6.83807 5.0142 6.85227 5.45455H5.82955ZM8.5728 12V5.45455H9.54439V6.47727H9.62962C9.76598 6.12784 9.98615 5.85653 10.2901 5.66335C10.5941 5.46733 10.9592 5.36932 11.3853 5.36932C11.8171 5.36932 12.1765 5.46733 12.4634 5.66335C12.7532 5.85653 12.979 6.12784 13.141 6.47727H13.2092C13.3768 6.1392 13.6282 5.87074 13.9634 5.67188C14.2987 5.47017 14.7006 5.36932 15.1694 5.36932C15.7546 5.36932 16.2333 5.55256 16.6055 5.91903C16.9776 6.28267 17.1637 6.84943 17.1637 7.61932V12H16.158V7.61932C16.158 7.13636 16.0259 6.79119 15.7617 6.58381C15.4975 6.37642 15.1864 6.27273 14.8285 6.27273C14.3683 6.27273 14.0117 6.41193 13.7589 6.69034C13.506 6.96591 13.3796 7.31534 13.3796 7.73864V12H12.3569V7.51705C12.3569 7.14489 12.2362 6.84517 11.9947 6.6179C11.7532 6.38778 11.4421 6.27273 11.0614 6.27273C10.8001 6.27273 10.5558 6.34233 10.3285 6.48153C10.104 6.62074 9.92223 6.81392 9.78303 7.06108C9.64666 7.3054 9.57848 7.58807 9.57848 7.90909V12H8.5728ZM20.9286 12.1534C20.5138 12.1534 20.1374 12.0753 19.7994 11.919C19.4613 11.7599 19.1928 11.5312 18.994 11.233C18.7951 10.9318 18.6957 10.5682 18.6957 10.142C18.6957 9.76705 18.7695 9.46307 18.9173 9.23011C19.065 8.99432 19.2624 8.80966 19.5096 8.67614C19.7567 8.54261 20.0295 8.44318 20.3278 8.37784C20.6289 8.30966 20.9315 8.25568 21.2354 8.21591C21.6332 8.16477 21.9556 8.12642 22.2028 8.10085C22.4528 8.07244 22.6346 8.02557 22.7482 7.96023C22.8647 7.89489 22.9229 7.78125 22.9229 7.61932V7.58523C22.9229 7.16477 22.8079 6.83807 22.5778 6.60511C22.3505 6.37216 22.0053 6.25568 21.5423 6.25568C21.0621 6.25568 20.6857 6.3608 20.413 6.57102C20.1403 6.78125 19.9485 7.00568 19.8377 7.24432L18.8832 6.90341C19.0536 6.50568 19.2809 6.19602 19.565 5.97443C19.8519 5.75 20.1644 5.59375 20.5025 5.50568C20.8434 5.41477 21.1786 5.36932 21.5082 5.36932C21.7184 5.36932 21.9599 5.39489 22.2326 5.44602C22.5082 5.49432 22.7738 5.59517 23.0295 5.74858C23.288 5.90199 23.5025 6.13352 23.6729 6.44318C23.8434 6.75284 23.9286 7.16761 23.9286 7.6875V12H22.9229V11.1136H22.8718C22.8036 11.2557 22.69 11.4077 22.5309 11.5696C22.3718 11.7315 22.1602 11.8693 21.896 11.983C21.6317 12.0966 21.3093 12.1534 20.9286 12.1534ZM21.082 11.25C21.4798 11.25 21.815 11.1719 22.0877 11.0156C22.3633 10.8594 22.5707 10.6577 22.7099 10.4105C22.8519 10.1634 22.9229 9.90341 22.9229 9.63068V8.71023C22.8803 8.76136 22.7866 8.80824 22.6417 8.85085C22.4996 8.89062 22.3349 8.92614 22.1474 8.95739C21.9627 8.9858 21.7823 9.01136 21.6062 9.03409C21.4329 9.05398 21.2923 9.07102 21.1843 9.08523C20.9229 9.11932 20.6786 9.17472 20.4513 9.25142C20.2269 9.32528 20.0451 9.4375 19.9059 9.58807C19.7695 9.7358 19.7013 9.9375 19.7013 10.1932C19.7013 10.5426 19.8306 10.8068 20.0891 10.9858C20.3505 11.1619 20.6815 11.25 21.082 11.25ZM25.7642 12V5.45455H26.7358V6.44318H26.804C26.9233 6.11932 27.1392 5.85653 27.4517 5.65483C27.7642 5.45312 28.1165 5.35227 28.5085 5.35227C28.5824 5.35227 28.6747 5.35369 28.7855 5.35653C28.8963 5.35937 28.9801 5.36364 29.0369 5.36932V6.39205C29.0028 6.38352 28.9247 6.37074 28.8026 6.35369C28.6832 6.33381 28.5568 6.32386 28.4233 6.32386C28.1051 6.32386 27.821 6.39062 27.571 6.52415C27.3239 6.65483 27.1278 6.83665 26.983 7.0696C26.8409 7.29972 26.7699 7.5625 26.7699 7.85795V12H25.7642ZM33.4858 5.45455V6.30682H30.0938V5.45455H33.4858ZM31.0824 3.88636H32.0881V10.125C32.0881 10.4091 32.1293 10.6222 32.2116 10.7642C32.2969 10.9034 32.4048 10.9972 32.5355 11.0455C32.669 11.0909 32.8097 11.1136 32.9574 11.1136C33.0682 11.1136 33.1591 11.108 33.2301 11.0966C33.3011 11.0824 33.358 11.071 33.4006 11.0625L33.6051 11.9659C33.5369 11.9915 33.4418 12.017 33.3196 12.0426C33.1974 12.071 33.0426 12.0852 32.8551 12.0852C32.571 12.0852 32.2926 12.0241 32.0199 11.902C31.75 11.7798 31.5256 11.5938 31.3466 11.3438C31.1705 11.0938 31.0824 10.7784 31.0824 10.3977V3.88636ZM43.0099 6.92045L42.1065 7.17614C42.0497 7.02557 41.9659 6.87926 41.8551 6.73722C41.7472 6.59233 41.5994 6.47301 41.4119 6.37926C41.2244 6.28551 40.9844 6.23864 40.6918 6.23864C40.2912 6.23864 39.9574 6.33097 39.6903 6.51562C39.4261 6.69744 39.294 6.92898 39.294 7.21023C39.294 7.46023 39.3849 7.65767 39.5668 7.80256C39.7486 7.94744 40.0327 8.06818 40.419 8.16477L41.3906 8.40341C41.9759 8.54545 42.4119 8.76278 42.6989 9.0554C42.9858 9.34517 43.1293 9.71875 43.1293 10.1761C43.1293 10.5511 43.0213 10.8864 42.8054 11.1818C42.5923 11.4773 42.294 11.7102 41.9105 11.8807C41.527 12.0511 41.081 12.1364 40.5724 12.1364C39.9048 12.1364 39.3523 11.9915 38.9148 11.7017C38.4773 11.4119 38.2003 10.9886 38.0838 10.4318L39.0384 10.1932C39.1293 10.5455 39.3011 10.8097 39.554 10.9858C39.8097 11.1619 40.1435 11.25 40.5554 11.25C41.0241 11.25 41.3963 11.1506 41.6719 10.9517C41.9503 10.75 42.0895 10.5085 42.0895 10.2273C42.0895 10 42.0099 9.80966 41.8509 9.65625C41.6918 9.5 41.4474 9.38352 41.1179 9.30682L40.027 9.05114C39.4276 8.90909 38.9872 8.68892 38.706 8.39062C38.4276 8.08949 38.2884 7.71307 38.2884 7.26136C38.2884 6.89205 38.392 6.56534 38.5994 6.28125C38.8097 5.99716 39.0952 5.77415 39.456 5.61222C39.8196 5.45028 40.2315 5.36932 40.6918 5.36932C41.3395 5.36932 41.848 5.51136 42.2173 5.79545C42.5895 6.07955 42.8537 6.45455 43.0099 6.92045ZM47.3022 12.1364C46.7113 12.1364 46.1928 11.9957 45.7468 11.7145C45.3036 11.4332 44.957 11.0398 44.707 10.5341C44.4599 10.0284 44.3363 9.4375 44.3363 8.76136C44.3363 8.07955 44.4599 7.48437 44.707 6.97585C44.957 6.46733 45.3036 6.07244 45.7468 5.79119C46.1928 5.50994 46.7113 5.36932 47.3022 5.36932C47.8931 5.36932 48.4102 5.50994 48.8533 5.79119C49.2994 6.07244 49.646 6.46733 49.8931 6.97585C50.1431 7.48437 50.2681 8.07955 50.2681 8.76136C50.2681 9.4375 50.1431 10.0284 49.8931 10.5341C49.646 11.0398 49.2994 11.4332 48.8533 11.7145C48.4102 11.9957 47.8931 12.1364 47.3022 12.1364ZM47.3022 11.233C47.7511 11.233 48.1204 11.1179 48.4102 10.8878C48.6999 10.6577 48.9144 10.3551 49.0536 9.98011C49.1928 9.60511 49.2624 9.19886 49.2624 8.76136C49.2624 8.32386 49.1928 7.91619 49.0536 7.53835C48.9144 7.16051 48.6999 6.85511 48.4102 6.62216C48.1204 6.3892 47.7511 6.27273 47.3022 6.27273C46.8533 6.27273 46.484 6.3892 46.1942 6.62216C45.9045 6.85511 45.69 7.16051 45.5508 7.53835C45.4116 7.91619 45.342 8.32386 45.342 8.76136C45.342 9.19886 45.4116 9.60511 45.5508 9.98011C45.69 10.3551 45.9045 10.6577 46.1942 10.8878C46.484 11.1179 46.8533 11.233 47.3022 11.233ZM52.8089 3.27273V12H51.8033V3.27273H52.8089ZM58.7759 9.32386V5.45455H59.7816V12H58.7759V10.892H58.7077C58.5543 11.2244 58.3157 11.5071 57.9918 11.7401C57.668 11.9702 57.2589 12.0852 56.7646 12.0852C56.3555 12.0852 55.9918 11.9957 55.6737 11.8168C55.3555 11.6349 55.1055 11.3622 54.9237 10.9986C54.7418 10.6321 54.6509 10.1705 54.6509 9.61364V5.45455H55.6566V9.54545C55.6566 10.0227 55.7901 10.4034 56.0572 10.6875C56.3271 10.9716 56.6708 11.1136 57.0884 11.1136C57.3384 11.1136 57.5927 11.0497 57.8512 10.9219C58.1126 10.794 58.3313 10.598 58.5075 10.3338C58.6864 10.0696 58.7759 9.73295 58.7759 9.32386ZM64.4702 5.45455V6.30682H61.0781V5.45455H64.4702ZM62.0668 3.88636H63.0724V10.125C63.0724 10.4091 63.1136 10.6222 63.196 10.7642C63.2813 10.9034 63.3892 10.9972 63.5199 11.0455C63.6534 11.0909 63.794 11.1136 63.9418 11.1136C64.0526 11.1136 64.1435 11.108 64.2145 11.0966C64.2855 11.0824 64.3423 11.071 64.3849 11.0625L64.5895 11.9659C64.5213 11.9915 64.4261 12.017 64.304 12.0426C64.1818 12.071 64.027 12.0852 63.8395 12.0852C63.5554 12.0852 63.277 12.0241 63.0043 11.902C62.7344 11.7798 62.5099 11.5938 62.331 11.3438C62.1548 11.0938 62.0668 10.7784 62.0668 10.3977V3.88636ZM65.983 12V5.45455H66.9886V12H65.983ZM66.4943 4.36364C66.2983 4.36364 66.1293 4.29688 65.9872 4.16335C65.848 4.02983 65.7784 3.86932 65.7784 3.68182C65.7784 3.49432 65.848 3.33381 65.9872 3.20028C66.1293 3.06676 66.2983 3 66.4943 3C66.6903 3 66.858 3.06676 66.9972 3.20028C67.1392 3.33381 67.2102 3.49432 67.2102 3.68182C67.2102 3.86932 67.1392 4.02983 66.9972 4.16335C66.858 4.29688 66.6903 4.36364 66.4943 4.36364ZM71.4897 12.1364C70.8988 12.1364 70.3803 11.9957 69.9343 11.7145C69.4911 11.4332 69.1445 11.0398 68.8945 10.5341C68.6474 10.0284 68.5238 9.4375 68.5238 8.76136C68.5238 8.07955 68.6474 7.48437 68.8945 6.97585C69.1445 6.46733 69.4911 6.07244 69.9343 5.79119C70.3803 5.50994 70.8988 5.36932 71.4897 5.36932C72.0806 5.36932 72.5977 5.50994 73.0408 5.79119C73.4869 6.07244 73.8335 6.46733 74.0806 6.97585C74.3306 7.48437 74.4556 8.07955 74.4556 8.76136C74.4556 9.4375 74.3306 10.0284 74.0806 10.5341C73.8335 11.0398 73.4869 11.4332 73.0408 11.7145C72.5977 11.9957 72.0806 12.1364 71.4897 12.1364ZM71.4897 11.233C71.9386 11.233 72.3079 11.1179 72.5977 10.8878C72.8874 10.6577 73.1019 10.3551 73.2411 9.98011C73.3803 9.60511 73.4499 9.19886 73.4499 8.76136C73.4499 8.32386 73.3803 7.91619 73.2411 7.53835C73.1019 7.16051 72.8874 6.85511 72.5977 6.62216C72.3079 6.3892 71.9386 6.27273 71.4897 6.27273C71.0408 6.27273 70.6715 6.3892 70.3817 6.62216C70.092 6.85511 69.8775 7.16051 69.7383 7.53835C69.5991 7.91619 69.5295 8.32386 69.5295 8.76136C69.5295 9.19886 69.5991 9.60511 69.7383 9.98011C69.8775 10.3551 70.092 10.6577 70.3817 10.8878C70.6715 11.1179 71.0408 11.233 71.4897 11.233ZM76.9964 8.0625V12H75.9908V5.45455H76.9624V6.47727H77.0476C77.201 6.14489 77.4339 5.87784 77.7464 5.67614C78.0589 5.47159 78.4624 5.36932 78.9567 5.36932C79.3999 5.36932 79.7876 5.46023 80.12 5.64205C80.4524 5.82102 80.7109 6.09375 80.8956 6.46023C81.0803 6.82386 81.1726 7.28409 81.1726 7.84091V12H80.1669V7.90909C80.1669 7.39489 80.0334 6.99432 79.7663 6.70739C79.4993 6.41761 79.1328 6.27273 78.6669 6.27273C78.3459 6.27273 78.0589 6.34233 77.8061 6.48153C77.5561 6.62074 77.3587 6.82386 77.2138 7.09091C77.0689 7.35795 76.9964 7.68182 76.9964 8.0625ZM87.6467 6.92045L86.7433 7.17614C86.6864 7.02557 86.6026 6.87926 86.4918 6.73722C86.3839 6.59233 86.2362 6.47301 86.0487 6.37926C85.8612 6.28551 85.6211 6.23864 85.3285 6.23864C84.9279 6.23864 84.5941 6.33097 84.3271 6.51562C84.0629 6.69744 83.9308 6.92898 83.9308 7.21023C83.9308 7.46023 84.0217 7.65767 84.2035 7.80256C84.3853 7.94744 84.6694 8.06818 85.0558 8.16477L86.0273 8.40341C86.6126 8.54545 87.0487 8.76278 87.3356 9.0554C87.6225 9.34517 87.766 9.71875 87.766 10.1761C87.766 10.5511 87.658 10.8864 87.4421 11.1818C87.229 11.4773 86.9308 11.7102 86.5472 11.8807C86.1637 12.0511 85.7177 12.1364 85.2092 12.1364C84.5415 12.1364 83.989 11.9915 83.5515 11.7017C83.114 11.4119 82.837 10.9886 82.7205 10.4318L83.6751 10.1932C83.766 10.5455 83.9379 10.8097 84.1907 10.9858C84.4464 11.1619 84.7802 11.25 85.1921 11.25C85.6609 11.25 86.033 11.1506 86.3086 10.9517C86.587 10.75 86.7262 10.5085 86.7262 10.2273C86.7262 10 86.6467 9.80966 86.4876 9.65625C86.3285 9.5 86.0842 9.38352 85.7546 9.30682L84.6637 9.05114C84.0643 8.90909 83.6239 8.68892 83.3427 8.39062C83.0643 8.08949 82.9251 7.71307 82.9251 7.26136C82.9251 6.89205 83.0288 6.56534 83.2362 6.28125C83.4464 5.99716 83.7319 5.77415 84.0927 5.61222C84.4563 5.45028 84.8683 5.36932 85.3285 5.36932C85.9762 5.36932 86.4847 5.51136 86.854 5.79545C87.2262 6.07955 87.4904 6.45455 87.6467 6.92045ZM95.5696 5.45455V6.30682H92.0412V5.45455H95.5696ZM93.098 12V4.55114C93.098 4.17614 93.1861 3.86364 93.3622 3.61364C93.5384 3.36364 93.767 3.17614 94.0483 3.05114C94.3295 2.92614 94.6264 2.86364 94.9389 2.86364C95.1861 2.86364 95.3878 2.88352 95.544 2.9233C95.7003 2.96307 95.8168 3 95.8935 3.03409L95.6037 3.90341C95.5526 3.88636 95.4815 3.86506 95.3906 3.83949C95.3026 3.81392 95.1861 3.80114 95.0412 3.80114C94.7088 3.80114 94.4688 3.88494 94.321 4.05256C94.1761 4.22017 94.1037 4.46591 94.1037 4.78977V12H93.098ZM99.3686 12.1364C98.7777 12.1364 98.2592 11.9957 97.8132 11.7145C97.37 11.4332 97.0234 11.0398 96.7734 10.5341C96.5263 10.0284 96.4027 9.4375 96.4027 8.76136C96.4027 8.07955 96.5263 7.48437 96.7734 6.97585C97.0234 6.46733 97.37 6.07244 97.8132 5.79119C98.2592 5.50994 98.7777 5.36932 99.3686 5.36932C99.9595 5.36932 100.477 5.50994 100.92 5.79119C101.366 6.07244 101.712 6.46733 101.96 6.97585C102.21 7.48437 102.335 8.07955 102.335 8.76136C102.335 9.4375 102.21 10.0284 101.96 10.5341C101.712 11.0398 101.366 11.4332 100.92 11.7145C100.477 11.9957 99.9595 12.1364 99.3686 12.1364ZM99.3686 11.233C99.8175 11.233 100.187 11.1179 100.477 10.8878C100.766 10.6577 100.981 10.3551 101.12 9.98011C101.259 9.60511 101.329 9.19886 101.329 8.76136C101.329 8.32386 101.259 7.91619 101.12 7.53835C100.981 7.16051 100.766 6.85511 100.477 6.62216C100.187 6.3892 99.8175 6.27273 99.3686 6.27273C98.9197 6.27273 98.5504 6.3892 98.2607 6.62216C97.9709 6.85511 97.7564 7.16051 97.6172 7.53835C97.478 7.91619 97.4084 8.32386 97.4084 8.76136C97.4084 9.19886 97.478 9.60511 97.6172 9.98011C97.7564 10.3551 97.9709 10.6577 98.2607 10.8878C98.5504 11.1179 98.9197 11.233 99.3686 11.233ZM103.87 12V5.45455H104.841V6.44318H104.909C105.029 6.11932 105.245 5.85653 105.557 5.65483C105.87 5.45312 106.222 5.35227 106.614 5.35227C106.688 5.35227 106.78 5.35369 106.891 5.35653C107.002 5.35937 107.086 5.36364 107.142 5.36932V6.39205C107.108 6.38352 107.03 6.37074 106.908 6.35369C106.789 6.33381 106.662 6.32386 106.529 6.32386C106.211 6.32386 105.926 6.39062 105.676 6.52415C105.429 6.65483 105.233 6.83665 105.088 7.0696C104.946 7.29972 104.875 7.5625 104.875 7.85795V12H103.87ZM112.357 14.4545C112.187 14.4545 112.035 14.4403 111.901 14.4119C111.768 14.3864 111.675 14.3608 111.624 14.3352L111.88 13.4489C112.124 13.5114 112.34 13.5341 112.528 13.517C112.715 13.5 112.881 13.4162 113.026 13.2656C113.174 13.1179 113.309 12.8778 113.431 12.5455L113.619 12.0341L111.198 5.45455H112.289L114.096 10.6705H114.164L115.971 5.45455H117.062L114.283 12.9545C114.158 13.2926 114.004 13.5724 113.819 13.794C113.634 14.0185 113.42 14.1847 113.175 14.2926C112.934 14.4006 112.661 14.4545 112.357 14.4545ZM120.814 12.1364C120.223 12.1364 119.705 11.9957 119.259 11.7145C118.815 11.4332 118.469 11.0398 118.219 10.5341C117.972 10.0284 117.848 9.4375 117.848 8.76136C117.848 8.07955 117.972 7.48437 118.219 6.97585C118.469 6.46733 118.815 6.07244 119.259 5.79119C119.705 5.50994 120.223 5.36932 120.814 5.36932C121.405 5.36932 121.922 5.50994 122.365 5.79119C122.811 6.07244 123.158 6.46733 123.405 6.97585C123.655 7.48437 123.78 8.07955 123.78 8.76136C123.78 9.4375 123.655 10.0284 123.405 10.5341C123.158 11.0398 122.811 11.4332 122.365 11.7145C121.922 11.9957 121.405 12.1364 120.814 12.1364ZM120.814 11.233C121.263 11.233 121.632 11.1179 121.922 10.8878C122.212 10.6577 122.426 10.3551 122.565 9.98011C122.705 9.60511 122.774 9.19886 122.774 8.76136C122.774 8.32386 122.705 7.91619 122.565 7.53835C122.426 7.16051 122.212 6.85511 121.922 6.62216C121.632 6.3892 121.263 6.27273 120.814 6.27273C120.365 6.27273 119.996 6.3892 119.706 6.62216C119.416 6.85511 119.202 7.16051 119.062 7.53835C118.923 7.91619 118.854 8.32386 118.854 8.76136C118.854 9.19886 118.923 9.60511 119.062 9.98011C119.202 10.3551 119.416 10.6577 119.706 10.8878C119.996 11.1179 120.365 11.233 120.814 11.233ZM129.44 9.32386V5.45455H130.446V12H129.44V10.892H129.372C129.218 11.2244 128.98 11.5071 128.656 11.7401C128.332 11.9702 127.923 12.0852 127.429 12.0852C127.02 12.0852 126.656 11.9957 126.338 11.8168C126.02 11.6349 125.77 11.3622 125.588 10.9986C125.406 10.6321 125.315 10.1705 125.315 9.61364V5.45455H126.321V9.54545C126.321 10.0227 126.454 10.4034 126.721 10.6875C126.991 10.9716 127.335 11.1136 127.752 11.1136C128.002 11.1136 128.257 11.0497 128.515 10.9219C128.777 10.794 128.995 10.598 129.172 10.3338C129.35 10.0696 129.44 9.73295 129.44 9.32386ZM132.288 12V5.45455H133.259V6.44318H133.327C133.447 6.11932 133.663 5.85653 133.975 5.65483C134.288 5.45312 134.64 5.35227 135.032 5.35227C135.106 5.35227 135.198 5.35369 135.309 5.35653C135.42 5.35937 135.504 5.36364 135.56 5.36932V6.39205C135.526 6.38352 135.448 6.37074 135.326 6.35369C135.207 6.33381 135.08 6.32386 134.947 6.32386C134.629 6.32386 134.344 6.39062 134.094 6.52415C133.847 6.65483 133.651 6.83665 133.506 7.0696C133.364 7.29972 133.293 7.5625 133.293 7.85795V12H132.288Z" fill="#2C2543"/>
<rect x="140" width="30" height="15" rx="7.5" fill="#6ED2BA"/>
<path d="M147.983 5.54545V6.09588H145.38V5.54545H147.983ZM146.193 4.23864H146.829V9.57599C146.829 9.80327 146.868 9.98201 146.946 10.1122C147.024 10.2401 147.126 10.3312 147.251 10.3857C147.377 10.4377 147.511 10.4638 147.653 10.4638C147.736 10.4638 147.807 10.459 147.866 10.4496C147.925 10.4377 147.977 10.4259 148.022 10.4141L148.157 10.9858C148.095 11.0095 148.02 11.0308 147.93 11.0497C147.84 11.071 147.728 11.0817 147.596 11.0817C147.364 11.0817 147.14 11.0308 146.925 10.929C146.712 10.8272 146.536 10.6757 146.399 10.4744C146.262 10.2732 146.193 10.0234 146.193 9.72514V4.23864ZM150.942 11.1243C150.613 11.1243 150.312 11.0604 150.04 10.9325C149.768 10.8023 149.551 10.6153 149.39 10.3714C149.229 10.1252 149.149 9.82694 149.149 9.47656C149.149 9.20668 149.2 8.9794 149.301 8.79474C149.403 8.61009 149.548 8.45857 149.735 8.3402C149.922 8.22183 150.143 8.12831 150.399 8.05966C150.654 7.991 150.936 7.93774 151.244 7.89986C151.549 7.86198 151.807 7.82884 152.018 7.80043C152.231 7.77202 152.393 7.72704 152.504 7.66548C152.616 7.60393 152.671 7.5045 152.671 7.36719V7.23935C152.671 6.86766 152.56 6.57528 152.338 6.36222C152.117 6.14678 151.8 6.03906 151.386 6.03906C150.993 6.03906 150.672 6.12547 150.423 6.2983C150.177 6.47112 150.004 6.67472 149.905 6.90909L149.305 6.69247C149.428 6.39418 149.598 6.15625 149.816 5.97869C150.034 5.79877 150.278 5.66974 150.548 5.59162C150.818 5.51113 151.091 5.47088 151.368 5.47088C151.576 5.47088 151.793 5.49811 152.018 5.55256C152.245 5.60701 152.456 5.7017 152.65 5.83665C152.844 5.96922 153.002 6.15507 153.122 6.39418C153.243 6.63092 153.303 6.93158 153.303 7.29616V11H152.671V10.1371H152.632C152.557 10.2981 152.444 10.4543 152.295 10.6058C152.146 10.7573 151.959 10.8816 151.734 10.9787C151.509 11.0758 151.245 11.1243 150.942 11.1243ZM151.027 10.5455C151.363 10.5455 151.655 10.4709 151.901 10.3217C152.147 10.1726 152.336 9.97491 152.469 9.72869C152.604 9.48011 152.671 9.20668 152.671 8.90838V8.12003C152.624 8.16501 152.545 8.20526 152.433 8.24077C152.325 8.27628 152.198 8.30824 152.053 8.33665C151.911 8.36269 151.769 8.38518 151.627 8.40412C151.485 8.42306 151.357 8.43963 151.244 8.45384C150.936 8.49171 150.673 8.5509 150.455 8.63139C150.238 8.71188 150.071 8.82315 149.955 8.9652C149.839 9.10488 149.781 9.2848 149.781 9.50497C149.781 9.83641 149.899 10.0933 150.136 10.2756C150.373 10.4555 150.67 10.5455 151.027 10.5455ZM158.65 6.74219L158.071 6.90554C158.014 6.74219 157.934 6.59422 157.829 6.46165C157.725 6.32907 157.589 6.22372 157.421 6.1456C157.255 6.06747 157.049 6.02841 156.803 6.02841C156.434 6.02841 156.131 6.116 155.894 6.29119C155.657 6.46638 155.539 6.69247 155.539 6.96946C155.539 7.20384 155.619 7.39441 155.78 7.54119C155.944 7.68561 156.195 7.80043 156.533 7.88565L157.357 8.08807C157.814 8.19934 158.156 8.37571 158.383 8.61719C158.613 8.85866 158.728 9.1617 158.728 9.52628C158.728 9.83404 158.643 10.1075 158.472 10.3466C158.302 10.5857 158.064 10.7739 157.758 10.9112C157.455 11.0462 157.104 11.1136 156.704 11.1136C156.171 11.1136 155.732 10.9941 155.386 10.755C155.041 10.5135 154.819 10.1655 154.722 9.71094L155.329 9.56179C155.407 9.88613 155.56 10.1312 155.787 10.2969C156.017 10.4626 156.319 10.5455 156.693 10.5455C157.112 10.5455 157.447 10.4519 157.698 10.2649C157.949 10.0755 158.074 9.83878 158.074 9.55469C158.074 9.33452 158.001 9.14986 157.854 9.00071C157.707 8.8492 157.485 8.73793 157.187 8.6669L156.295 8.45384C155.822 8.3402 155.471 8.16027 155.244 7.91406C155.017 7.66785 154.903 7.36245 154.903 6.99787C154.903 6.69721 154.985 6.43324 155.148 6.20597C155.312 5.97633 155.537 5.7964 155.823 5.66619C156.109 5.53598 156.436 5.47088 156.803 5.47088C157.303 5.47088 157.702 5.58452 158 5.81179C158.3 6.03669 158.517 6.34683 158.65 6.74219ZM160.687 8.94034L160.68 8.11293H160.822L163.379 5.54545H164.178L161.653 8.07386L161.596 8.08452L160.687 8.94034ZM160.112 11V3.72727H160.744V11H160.112ZM163.51 11L161.294 8.19815L161.749 7.76136L164.32 11H163.51Z" fill="#2C2543"/>
<path d="M176.847 12.1534C176.432 12.1534 176.055 12.0753 175.717 11.919C175.379 11.7599 175.111 11.5312 174.912 11.233C174.713 10.9318 174.614 10.5682 174.614 10.142C174.614 9.76705 174.688 9.46307 174.835 9.23011C174.983 8.99432 175.18 8.80966 175.428 8.67614C175.675 8.54261 175.947 8.44318 176.246 8.37784C176.547 8.30966 176.849 8.25568 177.153 8.21591C177.551 8.16477 177.874 8.12642 178.121 8.10085C178.371 8.07244 178.553 8.02557 178.666 7.96023C178.783 7.89489 178.841 7.78125 178.841 7.61932V7.58523C178.841 7.16477 178.726 6.83807 178.496 6.60511C178.268 6.37216 177.923 6.25568 177.46 6.25568C176.98 6.25568 176.604 6.3608 176.331 6.57102C176.058 6.78125 175.866 7.00568 175.756 7.24432L174.801 6.90341C174.972 6.50568 175.199 6.19602 175.483 5.97443C175.77 5.75 176.082 5.59375 176.42 5.50568C176.761 5.41477 177.097 5.36932 177.426 5.36932C177.636 5.36932 177.878 5.39489 178.151 5.44602C178.426 5.49432 178.692 5.59517 178.947 5.74858C179.206 5.90199 179.42 6.13352 179.591 6.44318C179.761 6.75284 179.847 7.16761 179.847 7.6875V12H178.841V11.1136H178.79C178.722 11.2557 178.608 11.4077 178.449 11.5696C178.29 11.7315 178.078 11.8693 177.814 11.983C177.55 12.0966 177.227 12.1534 176.847 12.1534ZM177 11.25C177.398 11.25 177.733 11.1719 178.006 11.0156C178.281 10.8594 178.489 10.6577 178.628 10.4105C178.77 10.1634 178.841 9.90341 178.841 9.63068V8.71023C178.798 8.76136 178.705 8.80824 178.56 8.85085C178.418 8.89062 178.253 8.92614 178.065 8.95739C177.881 8.9858 177.7 9.01136 177.524 9.03409C177.351 9.05398 177.21 9.07102 177.102 9.08523C176.841 9.11932 176.597 9.17472 176.369 9.25142C176.145 9.32528 175.963 9.4375 175.824 9.58807C175.688 9.7358 175.619 9.9375 175.619 10.1932C175.619 10.5426 175.749 10.8068 176.007 10.9858C176.268 11.1619 176.599 11.25 177 11.25ZM182.688 8.0625V12H181.682V5.45455H182.654V6.47727H182.739C182.892 6.14489 183.125 5.87784 183.438 5.67614C183.75 5.47159 184.154 5.36932 184.648 5.36932C185.091 5.36932 185.479 5.46023 185.811 5.64205C186.144 5.82102 186.402 6.09375 186.587 6.46023C186.772 6.82386 186.864 7.28409 186.864 7.84091V12H185.858V7.90909C185.858 7.39489 185.725 6.99432 185.458 6.70739C185.191 6.41761 184.824 6.27273 184.358 6.27273C184.037 6.27273 183.75 6.34233 183.498 6.48153C183.248 6.62074 183.05 6.82386 182.905 7.09091C182.76 7.35795 182.688 7.68182 182.688 8.0625ZM191.173 12.1364C190.628 12.1364 190.146 11.9986 189.729 11.723C189.311 11.4446 188.984 11.0526 188.749 10.5469C188.513 10.0384 188.395 9.4375 188.395 8.74432C188.395 8.05682 188.513 7.46023 188.749 6.95455C188.984 6.44886 189.313 6.05824 189.733 5.78267C190.153 5.5071 190.639 5.36932 191.19 5.36932C191.616 5.36932 191.953 5.44034 192.2 5.58239C192.45 5.72159 192.641 5.88068 192.771 6.05966C192.905 6.2358 193.009 6.38068 193.082 6.49432H193.168V3.27273H194.173V12H193.202V10.9943H193.082C193.009 11.1136 192.903 11.2642 192.767 11.446C192.631 11.625 192.436 11.7855 192.183 11.9276C191.93 12.0668 191.594 12.1364 191.173 12.1364ZM191.31 11.233C191.713 11.233 192.054 11.1278 192.332 10.9176C192.611 10.7045 192.822 10.4105 192.967 10.0355C193.112 9.65767 193.185 9.22159 193.185 8.72727C193.185 8.23864 193.114 7.81108 192.972 7.4446C192.83 7.07528 192.619 6.78835 192.341 6.58381C192.063 6.37642 191.719 6.27273 191.31 6.27273C190.884 6.27273 190.528 6.3821 190.244 6.60085C189.963 6.81676 189.751 7.1108 189.609 7.48295C189.47 7.85227 189.401 8.26705 189.401 8.72727C189.401 9.19318 189.472 9.61648 189.614 9.99716C189.759 10.375 189.972 10.6761 190.253 10.9006C190.537 11.1222 190.889 11.233 191.31 11.233Z" fill="#2C2543"/>
<rect x="200" width="37" height="15" rx="7.5" fill="#F8D57E"/>
<path d="M206.467 7.59091V11H205.835V5.54545H206.449V6.40128H206.506C206.634 6.12192 206.832 5.8982 207.102 5.73011C207.375 5.55966 207.711 5.47443 208.111 5.47443C208.478 5.47443 208.8 5.55137 209.077 5.70526C209.356 5.85677 209.573 6.08049 209.727 6.37642C209.883 6.67235 209.961 7.03575 209.961 7.46662V11H209.329V7.50568C209.329 7.05824 209.203 6.70431 208.952 6.44389C208.704 6.18348 208.37 6.05327 207.951 6.05327C207.665 6.05327 207.41 6.11482 207.188 6.23793C206.965 6.36103 206.789 6.53859 206.658 6.7706C206.531 7.00024 206.467 7.27367 206.467 7.59091ZM213.746 11.1136C213.274 11.1136 212.858 10.9941 212.496 10.755C212.136 10.5159 211.854 10.1856 211.65 9.7642C211.447 9.34044 211.345 8.85156 211.345 8.29759C211.345 7.73887 211.447 7.24763 211.65 6.82386C211.854 6.39773 212.136 6.06629 212.496 5.82955C212.858 5.59044 213.274 5.47088 213.746 5.47088C214.217 5.47088 214.632 5.59044 214.992 5.82955C215.352 6.06866 215.634 6.40009 215.837 6.82386C216.043 7.24763 216.146 7.73887 216.146 8.29759C216.146 8.85156 216.044 9.34044 215.841 9.7642C215.637 10.1856 215.354 10.5159 214.992 10.755C214.632 10.9941 214.217 11.1136 213.746 11.1136ZM213.746 10.5348C214.124 10.5348 214.445 10.433 214.708 10.2294C214.971 10.0258 215.17 9.75473 215.305 9.41619C215.442 9.07765 215.51 8.70478 215.51 8.29759C215.51 7.89039 215.442 7.51634 215.305 7.17543C215.17 6.83452 214.971 6.56108 214.708 6.35511C214.445 6.14915 214.124 6.04616 213.746 6.04616C213.369 6.04616 213.048 6.14915 212.783 6.35511C212.52 6.56108 212.32 6.83452 212.183 7.17543C212.048 7.51634 211.981 7.89039 211.981 8.29759C211.981 8.70478 212.048 9.07765 212.183 9.41619C212.32 9.75473 212.52 10.0258 212.783 10.2294C213.046 10.433 213.367 10.5348 213.746 10.5348ZM219.682 5.54545V6.09588H217.079V5.54545H219.682ZM217.892 4.23864H218.528V9.57599C218.528 9.80327 218.567 9.98201 218.645 10.1122C218.723 10.2401 218.825 10.3312 218.951 10.3857C219.076 10.4377 219.21 10.4638 219.352 10.4638C219.435 10.4638 219.506 10.459 219.565 10.4496C219.624 10.4377 219.676 10.4259 219.721 10.4141L219.856 10.9858C219.795 11.0095 219.719 11.0308 219.629 11.0497C219.539 11.071 219.428 11.0817 219.295 11.0817C219.063 11.0817 218.839 11.0308 218.624 10.929C218.411 10.8272 218.236 10.6757 218.098 10.4744C217.961 10.2732 217.892 10.0234 217.892 9.72514V4.23864ZM223.264 11.1136C222.755 11.1136 222.315 10.9953 221.943 10.7585C221.572 10.5194 221.284 10.1892 221.08 9.76776C220.879 9.34399 220.779 8.8563 220.779 8.30469C220.779 7.75545 220.879 7.26776 221.08 6.84162C221.284 6.41312 221.565 6.07812 221.922 5.83665C222.282 5.5928 222.697 5.47088 223.169 5.47088C223.464 5.47088 223.75 5.52533 224.024 5.63423C224.299 5.74077 224.545 5.9053 224.763 6.12784C224.983 6.34801 225.157 6.62618 225.285 6.96236C225.413 7.29616 225.477 7.69152 225.477 8.14844V8.46094H221.215V7.90341H224.83C224.83 7.55303 224.759 7.23816 224.617 6.95881C224.478 6.67708 224.282 6.45455 224.031 6.29119C223.783 6.12784 223.495 6.04616 223.169 6.04616C222.823 6.04616 222.519 6.13849 222.256 6.32315C221.993 6.50781 221.787 6.75166 221.638 7.05469C221.491 7.35772 221.417 7.68916 221.414 8.04901V8.38281C221.414 8.81605 221.489 9.19484 221.638 9.51918C221.789 9.84115 222.004 10.0909 222.281 10.2685C222.558 10.446 222.886 10.5348 223.264 10.5348C223.522 10.5348 223.749 10.4946 223.943 10.4141C224.139 10.3336 224.304 10.2259 224.436 10.0909C224.571 9.9536 224.673 9.80327 224.742 9.63991L225.342 9.83523C225.259 10.0649 225.123 10.2768 224.933 10.4709C224.746 10.665 224.512 10.8213 224.23 10.9396C223.951 11.0556 223.629 11.1136 223.264 11.1136ZM230.534 6.74219L229.956 6.90554C229.899 6.74219 229.818 6.59422 229.714 6.46165C229.61 6.32907 229.474 6.22372 229.306 6.1456C229.14 6.06747 228.934 6.02841 228.688 6.02841C228.319 6.02841 228.016 6.116 227.779 6.29119C227.542 6.46638 227.424 6.69247 227.424 6.96946C227.424 7.20384 227.504 7.39441 227.665 7.54119C227.828 7.68561 228.079 7.80043 228.418 7.88565L229.242 8.08807C229.699 8.19934 230.041 8.37571 230.268 8.61719C230.498 8.85866 230.613 9.1617 230.613 9.52628C230.613 9.83404 230.527 10.1075 230.357 10.3466C230.186 10.5857 229.949 10.7739 229.643 10.9112C229.34 11.0462 228.989 11.1136 228.588 11.1136C228.056 11.1136 227.617 10.9941 227.271 10.755C226.925 10.5135 226.704 10.1655 226.607 9.71094L227.214 9.56179C227.292 9.88613 227.445 10.1312 227.672 10.2969C227.902 10.4626 228.204 10.5455 228.578 10.5455C228.997 10.5455 229.332 10.4519 229.583 10.2649C229.834 10.0755 229.959 9.83878 229.959 9.55469C229.959 9.33452 229.886 9.14986 229.739 9.00071C229.592 8.8492 229.37 8.73793 229.071 8.6669L228.18 8.45384C227.707 8.3402 227.356 8.16027 227.129 7.91406C226.902 7.66785 226.788 7.36245 226.788 6.99787C226.788 6.69721 226.87 6.43324 227.033 6.20597C227.196 5.97633 227.421 5.7964 227.708 5.66619C227.994 5.53598 228.321 5.47088 228.688 5.47088C229.187 5.47088 229.586 5.58452 229.885 5.81179C230.185 6.03669 230.402 6.34683 230.534 6.74219Z" fill="#2C2543"/>
<path d="M1.51705 57V39.5455H5.20739V53.9574H12.6903V57H1.51705ZM21.032 57.2557C19.6854 57.2557 18.5263 56.983 17.5547 56.4375C16.5888 55.8864 15.8445 55.108 15.3217 54.1023C14.799 53.0909 14.5376 51.8949 14.5376 50.5142C14.5376 49.1676 14.799 47.9858 15.3217 46.9688C15.8445 45.9517 16.5803 45.1591 17.5291 44.5909C18.4837 44.0227 19.603 43.7386 20.8871 43.7386C21.7507 43.7386 22.5547 43.8778 23.299 44.1562C24.049 44.429 24.7024 44.8409 25.2592 45.392C25.8217 45.9432 26.2592 46.6364 26.5717 47.4716C26.8842 48.3011 27.0405 49.2727 27.0405 50.3864V51.3835H15.9865V49.1335H23.6229C23.6229 48.6108 23.5092 48.1477 23.282 47.7443C23.0547 47.3409 22.7393 47.0256 22.3359 46.7983C21.9382 46.5653 21.4751 46.4489 20.9467 46.4489C20.3956 46.4489 19.907 46.5767 19.4808 46.8324C19.0604 47.0824 18.7308 47.4205 18.4922 47.8466C18.2536 48.267 18.1314 48.7358 18.1257 49.2528V51.392C18.1257 52.0398 18.245 52.5994 18.4837 53.071C18.728 53.5426 19.0717 53.9062 19.5149 54.1619C19.9581 54.4176 20.4837 54.5455 21.0916 54.5455C21.495 54.5455 21.8643 54.4886 22.1996 54.375C22.5348 54.2614 22.8217 54.0909 23.0604 53.8636C23.299 53.6364 23.4808 53.358 23.6058 53.0284L26.9638 53.25C26.7933 54.0568 26.4439 54.7614 25.9155 55.3636C25.3928 55.9602 24.7166 56.4261 23.8871 56.7614C23.0632 57.0909 22.1115 57.2557 21.032 57.2557ZM36.3729 43.9091V46.6364H28.4893V43.9091H36.3729ZM30.2791 40.7727H33.9098V52.9773C33.9098 53.3125 33.9609 53.5739 34.0632 53.7614C34.1655 53.9432 34.3075 54.071 34.4893 54.1449C34.6768 54.2187 34.8928 54.2557 35.1371 54.2557C35.3075 54.2557 35.478 54.2415 35.6484 54.2131C35.8189 54.179 35.9496 54.1534 36.0405 54.1364L36.6115 56.8381C36.4297 56.8949 36.174 56.9602 35.8445 57.0341C35.5149 57.1136 35.1143 57.1619 34.6428 57.179C33.7678 57.2131 33.0007 57.0966 32.3416 56.8295C31.6882 56.5625 31.1797 56.1477 30.8161 55.5852C30.4524 55.0227 30.2734 54.3125 30.2791 53.4545V40.7727ZM42.3665 39.5455V41.3864C42.3665 41.9091 42.2642 42.4432 42.0597 42.9886C41.8608 43.5284 41.5938 44.0398 41.2585 44.5227C40.9233 45 40.5568 45.4062 40.1591 45.7415L38.5568 44.7955C38.8409 44.3466 39.0909 43.8494 39.3068 43.304C39.5284 42.7585 39.6392 42.125 39.6392 41.4034V39.5455H42.3665ZM54.0362 47.642L50.7124 47.8466C50.6555 47.5625 50.5334 47.3068 50.3459 47.0795C50.1584 46.8466 49.9112 46.6619 49.6044 46.5256C49.3033 46.3835 48.9425 46.3125 48.522 46.3125C47.9595 46.3125 47.4851 46.4318 47.0987 46.6705C46.7124 46.9034 46.5192 47.2159 46.5192 47.608C46.5192 47.9205 46.6442 48.1847 46.8942 48.4006C47.1442 48.6165 47.5732 48.7898 48.1811 48.9205L50.5504 49.3977C51.8232 49.6591 52.772 50.0795 53.397 50.6591C54.022 51.2386 54.3345 52 54.3345 52.9432C54.3345 53.8011 54.0817 54.554 53.576 55.2017C53.076 55.8494 52.3885 56.3551 51.5135 56.7188C50.6442 57.0767 49.6413 57.2557 48.505 57.2557C46.772 57.2557 45.3913 56.8949 44.3629 56.1733C43.3402 55.446 42.7408 54.4574 42.5646 53.2074L46.1357 53.0199C46.2436 53.5483 46.505 53.9517 46.9197 54.2301C47.3345 54.5028 47.8658 54.6392 48.5135 54.6392C49.1499 54.6392 49.6612 54.517 50.0476 54.2727C50.4396 54.0227 50.6385 53.7017 50.6442 53.3097C50.6385 52.9801 50.4993 52.7102 50.2266 52.5C49.9538 52.2841 49.5334 52.1193 48.9652 52.0057L46.6982 51.554C45.4197 51.2983 44.468 50.8551 43.843 50.2244C43.2237 49.5937 42.9141 48.7898 42.9141 47.8125C42.9141 46.9716 43.1413 46.2472 43.5959 45.6392C44.0561 45.0312 44.701 44.5625 45.5305 44.233C46.3658 43.9034 47.343 43.7386 48.4624 43.7386C50.1158 43.7386 51.4169 44.0881 52.3658 44.7869C53.3203 45.4858 53.8771 46.4375 54.0362 47.642ZM65.8061 49.4318V57H62.1754V39.5455H65.7038V46.2188H65.8572C66.1527 45.446 66.63 44.8409 67.2891 44.4034C67.9482 43.9602 68.7749 43.7386 69.7692 43.7386C70.6783 43.7386 71.4709 43.9375 72.147 44.3352C72.8288 44.7273 73.3572 45.2926 73.7322 46.0312C74.1129 46.7642 74.3004 47.642 74.2947 48.6648V57H70.6641V49.3125C70.6697 48.5057 70.4652 47.8778 70.0504 47.429C69.6413 46.9801 69.0675 46.7557 68.3288 46.7557C67.8345 46.7557 67.397 46.8608 67.0163 47.071C66.6413 47.2812 66.3459 47.5881 66.13 47.9915C65.9197 48.3892 65.8118 48.8693 65.8061 49.4318ZM83.1179 57.2557C81.7713 57.2557 80.6122 56.983 79.6406 56.4375C78.6747 55.8864 77.9304 55.108 77.4077 54.1023C76.8849 53.0909 76.6236 51.8949 76.6236 50.5142C76.6236 49.1676 76.8849 47.9858 77.4077 46.9688C77.9304 45.9517 78.6662 45.1591 79.6151 44.5909C80.5696 44.0227 81.6889 43.7386 82.973 43.7386C83.8366 43.7386 84.6406 43.8778 85.3849 44.1562C86.1349 44.429 86.7884 44.8409 87.3452 45.392C87.9077 45.9432 88.3452 46.6364 88.6577 47.4716C88.9702 48.3011 89.1264 49.2727 89.1264 50.3864V51.3835H78.0724V49.1335H85.7088C85.7088 48.6108 85.5952 48.1477 85.3679 47.7443C85.1406 47.3409 84.8253 47.0256 84.4219 46.7983C84.0241 46.5653 83.5611 46.4489 83.0327 46.4489C82.4815 46.4489 81.9929 46.5767 81.5668 46.8324C81.1463 47.0824 80.8168 47.4205 80.5781 47.8466C80.3395 48.267 80.2173 48.7358 80.2116 49.2528V51.392C80.2116 52.0398 80.331 52.5994 80.5696 53.071C80.8139 53.5426 81.1577 53.9062 81.6009 54.1619C82.044 54.4176 82.5696 54.5455 83.1776 54.5455C83.581 54.5455 83.9503 54.4886 84.2855 54.375C84.6207 54.2614 84.9077 54.0909 85.1463 53.8636C85.3849 53.6364 85.5668 53.358 85.6918 53.0284L89.0497 53.25C88.8793 54.0568 88.5298 54.7614 88.0014 55.3636C87.4787 55.9602 86.8026 56.4261 85.973 56.7614C85.1491 57.0909 84.1974 57.2557 83.1179 57.2557ZM95.1264 39.5455V57H91.4957V39.5455H95.1264ZM98.0348 61.9091V43.9091H101.614V46.108H101.776C101.935 45.7557 102.165 45.3977 102.467 45.0341C102.773 44.6648 103.171 44.358 103.66 44.1136C104.154 43.8636 104.768 43.7386 105.501 43.7386C106.455 43.7386 107.336 43.9886 108.143 44.4886C108.95 44.983 109.594 45.7301 110.077 46.7301C110.56 47.7244 110.802 48.9716 110.802 50.4716C110.802 51.9318 110.566 53.1648 110.094 54.1705C109.629 55.1705 108.992 55.929 108.185 56.446C107.384 56.9574 106.487 57.2131 105.492 57.2131C104.788 57.2131 104.188 57.0966 103.694 56.8636C103.205 56.6307 102.805 56.3381 102.492 55.9858C102.18 55.6278 101.941 55.267 101.776 54.9034H101.665V61.9091H98.0348ZM101.589 50.4545C101.589 51.233 101.697 51.9119 101.913 52.4915C102.129 53.071 102.441 53.5227 102.85 53.8466C103.259 54.1648 103.756 54.3239 104.342 54.3239C104.933 54.3239 105.433 54.1619 105.842 53.8381C106.251 53.5085 106.56 53.054 106.771 52.4744C106.987 51.8892 107.094 51.2159 107.094 50.4545C107.094 49.6989 106.989 49.0341 106.779 48.4602C106.569 47.8864 106.259 47.4375 105.85 47.1136C105.441 46.7898 104.938 46.6278 104.342 46.6278C103.751 46.6278 103.251 46.7841 102.842 47.0966C102.438 47.4091 102.129 47.8523 101.913 48.4261C101.697 49 101.589 49.6761 101.589 50.4545ZM121.018 61.9091C120.558 61.9091 120.126 61.8722 119.723 61.7983C119.325 61.7301 118.996 61.642 118.734 61.5341L119.553 58.8239C119.979 58.9545 120.362 59.0256 120.703 59.0369C121.05 59.0483 121.348 58.9688 121.598 58.7983C121.854 58.6278 122.061 58.3381 122.22 57.929L122.433 57.375L117.737 43.9091H121.555L124.266 53.5227H124.402L127.138 43.9091H130.982L125.893 58.4148C125.649 59.1193 125.317 59.733 124.896 60.2557C124.482 60.7841 123.956 61.1903 123.32 61.4744C122.683 61.7642 121.916 61.9091 121.018 61.9091ZM138.332 57.2557C137.009 57.2557 135.864 56.9744 134.898 56.4119C133.938 55.8437 133.196 55.054 132.673 54.0426C132.151 53.0256 131.889 51.8466 131.889 50.5057C131.889 49.1534 132.151 47.9716 132.673 46.9602C133.196 45.9432 133.938 45.1534 134.898 44.5909C135.864 44.0227 137.009 43.7386 138.332 43.7386C139.656 43.7386 140.798 44.0227 141.759 44.5909C142.724 45.1534 143.469 45.9432 143.991 46.9602C144.514 47.9716 144.776 49.1534 144.776 50.5057C144.776 51.8466 144.514 53.0256 143.991 54.0426C143.469 55.054 142.724 55.8437 141.759 56.4119C140.798 56.9744 139.656 57.2557 138.332 57.2557ZM138.349 54.4432C138.952 54.4432 139.455 54.2727 139.858 53.9318C140.261 53.5852 140.565 53.1136 140.77 52.517C140.98 51.9205 141.085 51.2415 141.085 50.4801C141.085 49.7188 140.98 49.0398 140.77 48.4432C140.565 47.8466 140.261 47.375 139.858 47.0284C139.455 46.6818 138.952 46.5085 138.349 46.5085C137.741 46.5085 137.23 46.6818 136.815 47.0284C136.406 47.375 136.097 47.8466 135.886 48.4432C135.682 49.0398 135.58 49.7188 135.58 50.4801C135.58 51.2415 135.682 51.9205 135.886 52.517C136.097 53.1136 136.406 53.5852 136.815 53.9318C137.23 54.2727 137.741 54.4432 138.349 54.4432ZM155.531 51.4261V43.9091H159.162V57H155.676V54.6222H155.54C155.244 55.3892 154.753 56.0057 154.065 56.4716C153.384 56.9375 152.551 57.1705 151.568 57.1705C150.693 57.1705 149.923 56.9716 149.259 56.5739C148.594 56.1761 148.074 55.6108 147.699 54.8778C147.33 54.1449 147.142 53.267 147.136 52.2443V43.9091H150.767V51.5966C150.773 52.3693 150.98 52.9801 151.389 53.429C151.798 53.8778 152.347 54.1023 153.034 54.1023C153.472 54.1023 153.881 54.0028 154.261 53.804C154.642 53.5994 154.949 53.2983 155.182 52.9006C155.42 52.5028 155.537 52.0114 155.531 51.4261ZM167.621 57V43.9091H171.081V46.2188H171.234C171.507 45.4517 171.962 44.8466 172.598 44.4034C173.234 43.9602 173.996 43.7386 174.882 43.7386C175.78 43.7386 176.544 43.9631 177.175 44.4119C177.805 44.8551 178.226 45.4574 178.436 46.2188H178.572C178.839 45.4688 179.322 44.8693 180.021 44.4205C180.726 43.9659 181.558 43.7386 182.518 43.7386C183.74 43.7386 184.732 44.1278 185.493 44.9062C186.26 45.679 186.643 46.7756 186.643 48.196V57H183.021V48.9119C183.021 48.1847 182.828 47.6392 182.442 47.2756C182.055 46.9119 181.572 46.7301 180.993 46.7301C180.334 46.7301 179.82 46.9403 179.45 47.3608C179.081 47.7756 178.896 48.3239 178.896 49.0057V57H175.376V48.8352C175.376 48.1932 175.192 47.6818 174.822 47.3011C174.459 46.9205 173.979 46.7301 173.382 46.7301C172.979 46.7301 172.615 46.8324 172.291 47.0369C171.973 47.2358 171.72 47.517 171.533 47.8807C171.345 48.2386 171.251 48.6591 171.251 49.142V57H167.621ZM195.477 57.2557C194.131 57.2557 192.972 56.983 192 56.4375C191.034 55.8864 190.29 55.108 189.767 54.1023C189.244 53.0909 188.983 51.8949 188.983 50.5142C188.983 49.1676 189.244 47.9858 189.767 46.9688C190.29 45.9517 191.026 45.1591 191.974 44.5909C192.929 44.0227 194.048 43.7386 195.332 43.7386C196.196 43.7386 197 43.8778 197.744 44.1562C198.494 44.429 199.148 44.8409 199.705 45.392C200.267 45.9432 200.705 46.6364 201.017 47.4716C201.33 48.3011 201.486 49.2727 201.486 50.3864V51.3835H190.432V49.1335H198.068C198.068 48.6108 197.955 48.1477 197.727 47.7443C197.5 47.3409 197.185 47.0256 196.781 46.7983C196.384 46.5653 195.92 46.4489 195.392 46.4489C194.841 46.4489 194.352 46.5767 193.926 46.8324C193.506 47.0824 193.176 47.4205 192.938 47.8466C192.699 48.267 192.577 48.7358 192.571 49.2528V51.392C192.571 52.0398 192.69 52.5994 192.929 53.071C193.173 53.5426 193.517 53.9062 193.96 54.1619C194.403 54.4176 194.929 54.5455 195.537 54.5455C195.94 54.5455 196.31 54.4886 196.645 54.375C196.98 54.2614 197.267 54.0909 197.506 53.8636C197.744 53.6364 197.926 53.358 198.051 53.0284L201.409 53.25C201.239 54.0568 200.889 54.7614 200.361 55.3636C199.838 55.9602 199.162 56.4261 198.332 56.7614C197.509 57.0909 196.557 57.2557 195.477 57.2557ZM209.821 57.2557C208.474 57.2557 207.315 56.983 206.344 56.4375C205.378 55.8864 204.634 55.108 204.111 54.1023C203.588 53.0909 203.327 51.8949 203.327 50.5142C203.327 49.1676 203.588 47.9858 204.111 46.9688C204.634 45.9517 205.369 45.1591 206.318 44.5909C207.273 44.0227 208.392 43.7386 209.676 43.7386C210.54 43.7386 211.344 43.8778 212.088 44.1562C212.838 44.429 213.491 44.8409 214.048 45.392C214.611 45.9432 215.048 46.6364 215.361 47.4716C215.673 48.3011 215.83 49.2727 215.83 50.3864V51.3835H204.776V49.1335H212.412C212.412 48.6108 212.298 48.1477 212.071 47.7443C211.844 47.3409 211.528 47.0256 211.125 46.7983C210.727 46.5653 210.264 46.4489 209.736 46.4489C209.185 46.4489 208.696 46.5767 208.27 46.8324C207.849 47.0824 207.52 47.4205 207.281 47.8466C207.043 48.267 206.92 48.7358 206.915 49.2528V51.392C206.915 52.0398 207.034 52.5994 207.273 53.071C207.517 53.5426 207.861 53.9062 208.304 54.1619C208.747 54.4176 209.273 54.5455 209.881 54.5455C210.284 54.5455 210.653 54.4886 210.989 54.375C211.324 54.2614 211.611 54.0909 211.849 53.8636C212.088 53.6364 212.27 53.358 212.395 53.0284L215.753 53.25C215.582 54.0568 215.233 54.7614 214.705 55.3636C214.182 55.9602 213.506 56.4261 212.676 56.7614C211.852 57.0909 210.901 57.2557 209.821 57.2557ZM225.162 43.9091V46.6364H217.278V43.9091H225.162ZM219.068 40.7727H222.699V52.9773C222.699 53.3125 222.75 53.5739 222.852 53.7614C222.955 53.9432 223.097 54.071 223.278 54.1449C223.466 54.2187 223.682 54.2557 223.926 54.2557C224.097 54.2557 224.267 54.2415 224.438 54.2131C224.608 54.179 224.739 54.1534 224.83 54.1364L225.401 56.8381C225.219 56.8949 224.963 56.9602 224.634 57.0341C224.304 57.1136 223.903 57.1619 223.432 57.179C222.557 57.2131 221.79 57.0966 221.131 56.8295C220.477 56.5625 219.969 56.1477 219.605 55.5852C219.241 55.0227 219.063 54.3125 219.068 53.4545V40.7727ZM241.477 51.4261V43.9091H245.107V57H241.621V54.6222H241.485C241.19 55.3892 240.698 56.0057 240.011 56.4716C239.329 56.9375 238.496 57.1705 237.513 57.1705C236.638 57.1705 235.869 56.9716 235.204 56.5739C234.539 56.1761 234.019 55.6108 233.644 54.8778C233.275 54.1449 233.087 53.267 233.082 52.2443V43.9091H236.712V51.5966C236.718 52.3693 236.925 52.9801 237.335 53.429C237.744 53.8778 238.292 54.1023 238.979 54.1023C239.417 54.1023 239.826 54.0028 240.207 53.804C240.587 53.5994 240.894 53.2983 241.127 52.9006C241.366 52.5028 241.482 52.0114 241.477 51.4261ZM248.011 61.9091V43.9091H251.591V46.108H251.753C251.912 45.7557 252.142 45.3977 252.443 45.0341C252.75 44.6648 253.148 44.358 253.636 44.1136C254.131 43.8636 254.744 43.7386 255.477 43.7386C256.432 43.7386 257.313 43.9886 258.119 44.4886C258.926 44.983 259.571 45.7301 260.054 46.7301C260.537 47.7244 260.778 48.9716 260.778 50.4716C260.778 51.9318 260.543 53.1648 260.071 54.1705C259.605 55.1705 258.969 55.929 258.162 56.446C257.361 56.9574 256.463 57.2131 255.469 57.2131C254.764 57.2131 254.165 57.0966 253.67 56.8636C253.182 56.6307 252.781 56.3381 252.469 55.9858C252.156 55.6278 251.918 55.267 251.753 54.9034H251.642V61.9091H248.011ZM251.565 50.4545C251.565 51.233 251.673 51.9119 251.889 52.4915C252.105 53.071 252.418 53.5227 252.827 53.8466C253.236 54.1648 253.733 54.3239 254.318 54.3239C254.909 54.3239 255.409 54.1619 255.818 53.8381C256.227 53.5085 256.537 53.054 256.747 52.4744C256.963 51.8892 257.071 51.2159 257.071 50.4545C257.071 49.6989 256.966 49.0341 256.756 48.4602C256.545 47.8864 256.236 47.4375 255.827 47.1136C255.418 46.7898 254.915 46.6278 254.318 46.6278C253.727 46.6278 253.227 46.7841 252.818 47.0966C252.415 47.4091 252.105 47.8523 251.889 48.4261C251.673 49 251.565 49.6761 251.565 50.4545ZM3.69034 90.9091C3.23011 90.9091 2.7983 90.8722 2.39489 90.7983C1.99716 90.7301 1.66761 90.642 1.40625 90.5341L2.22443 87.8239C2.65057 87.9545 3.03409 88.0256 3.375 88.0369C3.72159 88.0483 4.01989 87.9688 4.26989 87.7983C4.52557 87.6278 4.73295 87.3381 4.89205 86.929L5.10511 86.375L0.409091 72.9091H4.22727L6.9375 82.5227H7.07386L9.80966 72.9091H13.6534L8.56534 87.4148C8.32102 88.1193 7.98864 88.733 7.56818 89.2557C7.15341 89.7841 6.62784 90.1903 5.99148 90.4744C5.35511 90.7642 4.58807 90.9091 3.69034 90.9091ZM21.0043 86.2557C19.6804 86.2557 18.5355 85.9744 17.5696 85.4119C16.6094 84.8437 15.8679 84.054 15.3452 83.0426C14.8224 82.0256 14.5611 80.8466 14.5611 79.5057C14.5611 78.1534 14.8224 76.9716 15.3452 75.9602C15.8679 74.9432 16.6094 74.1534 17.5696 73.5909C18.5355 73.0227 19.6804 72.7386 21.0043 72.7386C22.3281 72.7386 23.4702 73.0227 24.4304 73.5909C25.3963 74.1534 26.1406 74.9432 26.6634 75.9602C27.1861 76.9716 27.4474 78.1534 27.4474 79.5057C27.4474 80.8466 27.1861 82.0256 26.6634 83.0426C26.1406 84.054 25.3963 84.8437 24.4304 85.4119C23.4702 85.9744 22.3281 86.2557 21.0043 86.2557ZM21.0213 83.4432C21.6236 83.4432 22.1264 83.2727 22.5298 82.9318C22.9332 82.5852 23.2372 82.1136 23.4418 81.517C23.652 80.9205 23.7571 80.2415 23.7571 79.4801C23.7571 78.7188 23.652 78.0398 23.4418 77.4432C23.2372 76.8466 22.9332 76.375 22.5298 76.0284C22.1264 75.6818 21.6236 75.5085 21.0213 75.5085C20.4134 75.5085 19.902 75.6818 19.4872 76.0284C19.0781 76.375 18.7685 76.8466 18.5582 77.4432C18.3537 78.0398 18.2514 78.7188 18.2514 79.4801C18.2514 80.2415 18.3537 80.9205 18.5582 81.517C18.7685 82.1136 19.0781 82.5852 19.4872 82.9318C19.902 83.2727 20.4134 83.4432 21.0213 83.4432ZM38.2031 80.4261V72.9091H41.8338V86H38.348V83.6222H38.2116C37.9162 84.3892 37.4247 85.0057 36.7372 85.4716C36.0554 85.9375 35.223 86.1705 34.2401 86.1705C33.3651 86.1705 32.5952 85.9716 31.9304 85.5739C31.2656 85.1761 30.7457 84.6108 30.3707 83.8778C30.0014 83.1449 29.8139 82.267 29.8082 81.2443V72.9091H33.4389V80.5966C33.4446 81.3693 33.652 81.9801 34.0611 82.429C34.4702 82.8778 35.0185 83.1023 35.706 83.1023C36.1435 83.1023 36.5526 83.0028 36.9332 82.804C37.3139 82.5994 37.6207 82.2983 37.8537 81.9006C38.0923 81.5028 38.2088 81.0114 38.2031 80.4261ZM44.7379 86V72.9091H48.2578V75.1932H48.3942C48.6328 74.3807 49.0334 73.767 49.5959 73.3523C50.1584 72.9318 50.8061 72.7216 51.5391 72.7216C51.7209 72.7216 51.9169 72.733 52.1271 72.7557C52.3374 72.7784 52.522 72.8097 52.6811 72.8494V76.071C52.5107 76.0199 52.2749 75.9744 51.9737 75.9347C51.6726 75.8949 51.397 75.875 51.147 75.875C50.6129 75.875 50.1357 75.9915 49.7152 76.2244C49.3004 76.4517 48.9709 76.7699 48.7266 77.179C48.4879 77.5881 48.3686 78.0597 48.3686 78.5938V86H44.7379ZM62.6953 86L59.1328 72.9091H62.8061L64.8345 81.7045H64.9538L67.0675 72.9091H70.6726L72.8203 81.6534H72.9311L74.9254 72.9091H78.5902L75.0362 86H71.1925L68.9425 77.767H68.7805L66.5305 86H62.6953ZM86.1136 86.2557C84.7898 86.2557 83.6449 85.9744 82.679 85.4119C81.7188 84.8437 80.9773 84.054 80.4545 83.0426C79.9318 82.0256 79.6705 80.8466 79.6705 79.5057C79.6705 78.1534 79.9318 76.9716 80.4545 75.9602C80.9773 74.9432 81.7188 74.1534 82.679 73.5909C83.6449 73.0227 84.7898 72.7386 86.1136 72.7386C87.4375 72.7386 88.5795 73.0227 89.5398 73.5909C90.5057 74.1534 91.25 74.9432 91.7727 75.9602C92.2955 76.9716 92.5568 78.1534 92.5568 79.5057C92.5568 80.8466 92.2955 82.0256 91.7727 83.0426C91.25 84.054 90.5057 84.8437 89.5398 85.4119C88.5795 85.9744 87.4375 86.2557 86.1136 86.2557ZM86.1307 83.4432C86.733 83.4432 87.2358 83.2727 87.6392 82.9318C88.0426 82.5852 88.3466 82.1136 88.5511 81.517C88.7614 80.9205 88.8665 80.2415 88.8665 79.4801C88.8665 78.7188 88.7614 78.0398 88.5511 77.4432C88.3466 76.8466 88.0426 76.375 87.6392 76.0284C87.2358 75.6818 86.733 75.5085 86.1307 75.5085C85.5227 75.5085 85.0114 75.6818 84.5966 76.0284C84.1875 76.375 83.8778 76.8466 83.6676 77.4432C83.4631 78.0398 83.3608 78.7188 83.3608 79.4801C83.3608 80.2415 83.4631 80.9205 83.6676 81.517C83.8778 82.1136 84.1875 82.5852 84.5966 82.9318C85.0114 83.2727 85.5227 83.4432 86.1307 83.4432ZM94.9176 86V72.9091H98.4375V75.1932H98.5739C98.8125 74.3807 99.2131 73.767 99.7756 73.3523C100.338 72.9318 100.986 72.7216 101.719 72.7216C101.901 72.7216 102.097 72.733 102.307 72.7557C102.517 72.7784 102.702 72.8097 102.861 72.8494V76.071C102.69 76.0199 102.455 75.9744 102.153 75.9347C101.852 75.8949 101.577 75.875 101.327 75.875C100.793 75.875 100.315 75.9915 99.8949 76.2244C99.4801 76.4517 99.1506 76.7699 98.9062 77.179C98.6676 77.5881 98.5483 78.0597 98.5483 78.5938V86H94.9176ZM108.028 82.233L108.036 77.8778H108.565L112.758 72.9091H116.925L111.292 79.4886H110.431L108.028 82.233ZM104.738 86V68.5455H108.369V86H104.738ZM112.92 86L109.067 80.2983L111.488 77.733L117.173 86H112.92ZM120.829 86.2216C120.266 86.2216 119.783 86.0227 119.38 85.625C118.982 85.2216 118.783 84.7386 118.783 84.1761C118.783 83.6193 118.982 83.142 119.38 82.7443C119.783 82.3466 120.266 82.1477 120.829 82.1477C121.374 82.1477 121.852 82.3466 122.261 82.7443C122.67 83.142 122.874 83.6193 122.874 84.1761C122.874 84.5511 122.778 84.8949 122.585 85.2074C122.397 85.5142 122.15 85.7614 121.843 85.9489C121.536 86.1307 121.198 86.2216 120.829 86.2216Z" fill="#2C2543"/>
</svg>
