<svg width="207" height="94" viewBox="0 0 207 94" fill="none" xmlns="http://www.w3.org/2000/svg">
<path d="M22.34 41V17.6H10.505V9.68H35.795V17.6H23.96V41H22.34ZM55.6055 9.68H57.3605L70.2305 41H68.4305L64.2005 30.65H48.7655L44.4905 41H42.7355L55.6055 9.68ZM49.4405 29.03H63.5255L56.4605 11.84L49.4405 29.03ZM90.4461 26.015C87.8961 25.505 85.8111 24.95 84.1911 24.35C82.6011 23.72 81.3411 22.88 80.4111 21.83C79.5111 20.75 79.0611 19.37 79.0611 17.69C79.0611 15.95 79.5111 14.42 80.4111 13.1C81.3411 11.78 82.6311 10.76 84.2811 10.04C85.9611 9.32 87.8961 8.96 90.0861 8.96C92.1861 8.96 94.1061 9.41 95.8461 10.31C97.6161 11.18 99.0111 12.41 100.031 14C101.051 15.59 101.561 17.405 101.561 19.445H99.8961C99.8961 17.675 99.4611 16.115 98.5911 14.765C97.7211 13.415 96.5361 12.38 95.0361 11.66C93.5361 10.91 91.8711 10.535 90.0411 10.535C88.4211 10.535 86.9061 10.79 85.4961 11.3C84.0861 11.81 82.9311 12.59 82.0311 13.64C81.1611 14.69 80.7261 16.01 80.7261 17.6C80.7261 19.04 81.1461 20.195 81.9861 21.065C82.8261 21.905 83.9211 22.55 85.2711 23C86.6211 23.45 88.5111 23.93 90.9411 24.44C93.4011 24.95 95.3061 25.445 96.6561 25.925C98.0361 26.375 99.1911 27.14 100.121 28.22C101.081 29.3 101.561 30.815 101.561 32.765C101.561 34.715 101.036 36.365 99.9861 37.715C98.9661 39.035 97.6011 40.025 95.8911 40.685C94.1811 41.345 92.3211 41.675 90.3111 41.675C87.8211 41.675 85.6311 41.21 83.7411 40.28C81.8511 39.35 80.3961 38.045 79.3761 36.365C78.3861 34.655 77.8911 32.705 77.8911 30.515H79.5561C79.5561 32.435 79.9761 34.115 80.8161 35.555C81.6861 36.995 82.9311 38.12 84.5511 38.93C86.1711 39.71 88.0911 40.1 90.3111 40.1C93.0711 40.1 95.3511 39.44 97.1511 38.12C98.9811 36.8 99.8961 35 99.8961 32.72C99.8961 31.16 99.5061 29.96 98.7261 29.12C97.9461 28.28 96.9561 27.68 95.7561 27.32C94.5861 26.93 92.8161 26.495 90.4461 26.015ZM113.047 9.68V30.875L134.287 9.68H136.627L123.532 22.73L136.582 41H134.602L122.362 23.9L113.047 33.215V41H111.382V9.68H113.047Z" fill="#6ED2BA"/>
<path d="M22.34 41H21.34V42H22.34V41ZM22.34 17.6H23.34V16.6H22.34V17.6ZM10.505 17.6H9.505V18.6H10.505V17.6ZM10.505 9.68V8.68H9.505V9.68H10.505ZM35.795 9.68H36.795V8.68H35.795V9.68ZM35.795 17.6V18.6H36.795V17.6H35.795ZM23.96 17.6V16.6H22.96V17.6H23.96ZM23.96 41V42H24.96V41H23.96ZM23.34 41V17.6H21.34V41H23.34ZM22.34 16.6H10.505V18.6H22.34V16.6ZM11.505 17.6V9.68H9.505V17.6H11.505ZM10.505 10.68H35.795V8.68H10.505V10.68ZM34.795 9.68V17.6H36.795V9.68H34.795ZM35.795 16.6H23.96V18.6H35.795V16.6ZM22.96 17.6V41H24.96V17.6H22.96ZM23.96 40H22.34V42H23.96V40ZM55.6055 9.68V8.68H54.9353L54.6806 9.29992L55.6055 9.68ZM57.3605 9.68L58.2855 9.29992L58.0308 8.68H57.3605V9.68ZM70.2305 41V42H71.7226L71.1555 40.6199L70.2305 41ZM68.4305 41L67.5049 41.3783L67.759 42H68.4305V41ZM64.2006 30.65L65.1262 30.2717L64.8721 29.65H64.2006V30.65ZM48.7655 30.65V29.65H48.0966L47.8413 30.2682L48.7655 30.65ZM44.4905 41V42H45.1594L45.4148 41.3818L44.4905 41ZM42.7355 41L41.8106 40.6199L41.2435 42H42.7355V41ZM49.4405 29.03L48.5148 28.6519L47.952 30.03H49.4405V29.03ZM63.5255 29.03V30.03H65.0177L64.4505 28.6499L63.5255 29.03ZM56.4605 11.84L57.3855 11.4599L56.4576 9.2022L55.5348 11.4619L56.4605 11.84ZM55.6055 10.68H57.3605V8.68H55.6055V10.68ZM56.4356 10.0601L69.3056 41.3801L71.1555 40.6199L58.2855 9.29992L56.4356 10.0601ZM70.2305 40H68.4305V42H70.2305V40ZM69.3562 40.6217L65.1262 30.2717L63.2749 31.0283L67.5049 41.3783L69.3562 40.6217ZM64.2006 29.65H48.7655V31.65H64.2006V29.65ZM47.8413 30.2682L43.5663 40.6182L45.4148 41.3818L49.6898 31.0318L47.8413 30.2682ZM44.4905 40H42.7355V42H44.4905V40ZM43.6605 41.3801L56.5305 10.0601L54.6806 9.29992L41.8106 40.6199L43.6605 41.3801ZM49.4405 30.03H63.5255V28.03H49.4405V30.03ZM64.4505 28.6499L57.3855 11.4599L55.5356 12.2201L62.6006 29.4101L64.4505 28.6499ZM55.5348 11.4619L48.5148 28.6519L50.3663 29.4081L57.3863 12.2181L55.5348 11.4619ZM90.4461 26.015L90.6446 25.0349L90.6422 25.0344L90.4461 26.015ZM84.1911 24.35L83.8227 25.2797L83.8332 25.2838L83.8438 25.2877L84.1911 24.35ZM80.4111 21.83L79.6429 22.4702L79.6525 22.4818L79.6625 22.493L80.4111 21.83ZM80.4111 13.1L79.5936 12.524L79.5892 12.5303L79.5849 12.5367L80.4111 13.1ZM84.2811 10.04L83.8872 9.12083L83.8811 9.12346L84.2811 10.04ZM95.8461 10.31L95.3867 11.1982L95.3958 11.2029L95.405 11.2074L95.8461 10.31ZM100.031 14L100.873 13.46L100.031 14ZM101.561 19.445V20.445H102.561V19.445H101.561ZM99.8961 19.445H98.8961V20.445H99.8961V19.445ZM98.5911 14.765L99.4317 14.2233L98.5911 14.765ZM95.0361 11.66L94.5889 12.5544L94.5961 12.558L94.6034 12.5615L95.0361 11.66ZM85.4961 11.3L85.156 10.3596L85.4961 11.3ZM82.0311 13.64L81.2718 12.9892L81.2664 12.9955L81.2611 13.002L82.0311 13.64ZM81.9861 21.065L81.2667 21.7596L81.2728 21.7659L81.279 21.7721L81.9861 21.065ZM85.2711 23L84.9549 23.9487L85.2711 23ZM90.9411 24.44L90.7357 25.4187L90.7381 25.4192L90.9411 24.44ZM96.6561 25.925L96.3211 26.8672L96.3335 26.8716L96.3461 26.8757L96.6561 25.925ZM100.121 28.22L99.3633 28.8725L99.3685 28.8785L99.3737 28.8844L100.121 28.22ZM99.9861 37.715L99.1967 37.1011L99.1948 37.1036L99.9861 37.715ZM95.8911 40.685L96.2512 41.6179L95.8911 40.685ZM79.3761 36.365L78.5107 36.866L78.5159 36.8751L78.5213 36.884L79.3761 36.365ZM77.8911 30.515V29.515H76.8911V30.515H77.8911ZM79.5561 30.515H80.5561V29.515H79.5561V30.515ZM80.8161 35.555L79.9523 36.0589L79.9562 36.0655L79.9602 36.0721L80.8161 35.555ZM84.5511 38.93L84.1039 39.8244L84.1106 39.8278L84.1173 39.831L84.5511 38.93ZM97.1511 38.12L96.5661 37.3089L96.5597 37.3136L97.1511 38.12ZM98.7261 29.12L97.9933 29.8004V29.8005L98.7261 29.12ZM95.7561 27.32L95.4399 28.2687L95.4542 28.2735L95.4688 28.2778L95.7561 27.32ZM90.6422 25.0344C88.1207 24.5301 86.0913 23.9874 84.5384 23.4123L83.8438 25.2877C85.5309 25.9126 87.6715 26.4799 90.25 26.9956L90.6422 25.0344ZM84.5595 23.4203C83.0838 22.8356 81.9652 22.0765 81.1597 21.167L79.6625 22.493C80.7169 23.6835 82.1184 24.6044 83.8227 25.2797L84.5595 23.4203ZM81.1793 21.1898C80.457 20.323 80.0611 19.1837 80.0611 17.69H78.0611C78.0611 19.5563 78.5652 21.177 79.6429 22.4702L81.1793 21.1898ZM80.0611 17.69C80.0611 16.1322 80.4607 14.8024 81.2373 13.6633L79.5849 12.5367C78.5615 14.0376 78.0611 15.7678 78.0611 17.69H80.0611ZM81.2286 13.676C82.0414 12.5223 83.1789 11.612 84.681 10.9565L83.8811 9.12346C82.0832 9.908 80.6408 11.0377 79.5936 12.524L81.2286 13.676ZM84.675 10.9591C86.2084 10.302 88.0052 9.96 90.0861 9.96V7.96C87.787 7.96 85.7138 8.33803 83.8872 9.12085L84.675 10.9591ZM90.0861 9.96C92.038 9.96 93.7988 10.3769 95.3867 11.1982L96.3055 9.42178C94.4134 8.44309 92.3342 7.96 90.0861 7.96V9.96ZM95.405 11.2074C97.0189 12.0007 98.2723 13.1103 99.1894 14.54L100.873 13.46C99.7499 11.7097 98.2133 10.3593 96.2872 9.41255L95.405 11.2074ZM99.1894 14.54C100.098 15.9559 100.561 17.5805 100.561 19.445H102.561C102.561 17.2295 102.004 15.2241 100.873 13.46L99.1894 14.54ZM101.561 18.445H99.8961V20.445H101.561V18.445ZM100.896 19.445C100.896 17.5032 100.416 15.7511 99.4317 14.2233L97.7505 15.3067C98.5059 16.4789 98.8961 17.8468 98.8961 19.445H100.896ZM99.4317 14.2233C98.4579 12.7122 97.1291 11.5554 95.4688 10.7585L94.6034 12.5615C95.9431 13.2046 96.9843 14.1178 97.7505 15.3067L99.4317 14.2233ZM95.4833 10.7656C93.8321 9.93997 92.0119 9.535 90.0411 9.535V11.535C91.7303 11.535 93.2401 11.88 94.5889 12.5544L95.4833 10.7656ZM90.0411 9.535C88.3145 9.535 86.6835 9.80711 85.156 10.3596L85.8362 12.2404C87.1287 11.7729 88.5277 11.535 90.0411 11.535V9.535ZM85.156 10.3596C83.5977 10.9233 82.2936 11.7972 81.2718 12.9892L82.7904 14.2908C83.5686 13.3828 84.5745 12.6967 85.8362 12.2404L85.156 10.3596ZM81.2611 13.002C80.2184 14.2604 79.7261 15.8177 79.7261 17.6H81.7261C81.7261 16.2023 82.1038 15.1196 82.8011 14.278L81.2611 13.002ZM79.7261 17.6C79.7261 19.2464 80.2131 20.6684 81.2667 21.7596L82.7055 20.3704C82.0791 19.7216 81.7261 18.8336 81.7261 17.6H79.7261ZM81.279 21.7721C82.2484 22.7415 83.4865 23.4592 84.9549 23.9487L85.5873 22.0513C84.3557 21.6408 83.4038 21.0685 82.6932 20.3579L81.279 21.7721ZM84.9549 23.9487C86.3583 24.4165 88.2914 24.9057 90.7357 25.4187L91.1465 23.4613C88.7308 22.9543 86.8839 22.4835 85.5873 22.0513L84.9549 23.9487ZM90.7381 25.4192C93.1813 25.9257 95.0346 26.4098 96.3211 26.8672L96.9911 24.9828C95.5776 24.4802 93.6209 23.9743 91.1441 23.4608L90.7381 25.4192ZM96.3461 26.8757C97.5558 27.2702 98.5548 27.9336 99.3633 28.8725L100.879 27.5675C99.8274 26.3464 98.5164 25.4798 96.9661 24.9743L96.3461 26.8757ZM99.3737 28.8844C100.121 29.7256 100.561 30.9734 100.561 32.765H102.561C102.561 30.6566 102.041 28.8744 100.869 27.5556L99.3737 28.8844ZM100.561 32.765C100.561 34.5253 100.091 35.9508 99.1967 37.1011L100.775 38.3289C101.981 36.7792 102.561 34.9047 102.561 32.765H100.561ZM99.1948 37.1036C98.2973 38.265 97.088 39.1511 95.531 39.7521L96.2512 41.6179C98.1142 40.8989 99.6348 39.805 100.777 38.3264L99.1948 37.1036ZM95.531 39.7521C93.9465 40.3636 92.2099 40.675 90.3111 40.675V42.675C92.4323 42.675 94.4157 42.3264 96.2512 41.6179L95.531 39.7521ZM90.3111 40.675C87.9465 40.675 85.9124 40.2339 84.1826 39.3827L83.2996 41.1773C85.3498 42.1861 87.6957 42.675 90.3111 42.675V40.675ZM84.1826 39.3827C82.4508 38.5306 81.1448 37.3513 80.2309 35.846L78.5213 36.884C79.6474 38.7387 81.2514 40.1694 83.2996 41.1773L84.1826 39.3827ZM80.2415 35.864C79.349 34.3223 78.8911 32.5486 78.8911 30.515H76.8911C76.8911 32.8614 77.4232 34.9877 78.5107 36.866L80.2415 35.864ZM77.8911 31.515H79.5561V29.515H77.8911V31.515ZM78.5561 30.515C78.5561 32.5848 79.0103 34.444 79.9523 36.0589L81.6799 35.0511C80.9419 33.786 80.5561 32.2852 80.5561 30.515H78.5561ZM79.9602 36.0721C80.9355 37.6865 82.3282 38.9366 84.1039 39.8244L84.9983 38.0356C83.534 37.3034 82.4367 36.3035 81.672 35.0379L79.9602 36.0721ZM84.1173 39.831C85.9006 40.6896 87.9754 41.1 90.3111 41.1V39.1C88.2068 39.1 86.4416 38.7304 84.9849 38.029L84.1173 39.831ZM90.3111 41.1C93.2327 41.1 95.7339 40.3994 97.7425 38.9264L96.5597 37.3136C94.9683 38.4806 92.9095 39.1 90.3111 39.1V41.1ZM97.7361 38.931C99.8299 37.4207 100.896 35.3173 100.896 32.72H98.8961C98.8961 34.6827 98.1323 36.1793 96.5661 37.309L97.7361 38.931ZM100.896 32.72C100.896 31 100.465 29.5226 99.4589 28.4395L97.9933 29.8005C98.5476 30.3974 98.8961 31.32 98.8961 32.72H100.896ZM99.4589 28.4396C98.5466 27.4571 97.3976 26.7684 96.0434 26.3622L95.4688 28.2778C96.5146 28.5916 97.3455 29.1029 97.9933 29.8004L99.4589 28.4396ZM96.0723 26.3713C94.8427 25.9615 93.0243 25.5169 90.6446 25.0349L90.2476 26.9951C92.6079 27.4731 94.3295 27.8985 95.4399 28.2687L96.0723 26.3713ZM113.047 9.68H114.047V8.68H113.047V9.68ZM113.047 30.875H112.047V33.2856L113.753 31.5829L113.047 30.875ZM134.287 9.68V8.68H133.873L133.58 8.97214L134.287 9.68ZM136.627 9.68L137.333 10.3883L139.047 8.68H136.627V9.68ZM123.532 22.73L122.826 22.0217L122.225 22.6207L122.718 23.3112L123.532 22.73ZM136.582 41V42H138.525L137.395 40.4188L136.582 41ZM134.602 41L133.788 41.582L134.088 42H134.602V41ZM122.362 23.9L123.175 23.318L122.488 22.359L121.655 23.1929L122.362 23.9ZM113.047 33.215L112.34 32.5079L112.047 32.8008V33.215H113.047ZM113.047 41V42H114.047V41H113.047ZM111.382 41H110.382V42H111.382V41ZM111.382 9.68V8.68H110.382V9.68H111.382ZM112.047 9.68V30.875H114.047V9.68H112.047ZM113.753 31.5829L134.993 10.3879L133.58 8.97214L112.34 30.1671L113.753 31.5829ZM134.287 10.68H136.627V8.68H134.287V10.68ZM135.921 8.97168L122.826 22.0217L124.238 23.4383L137.333 10.3883L135.921 8.97168ZM122.718 23.3112L135.768 41.5812L137.395 40.4188L124.345 22.1488L122.718 23.3112ZM136.582 40H134.602V42H136.582V40ZM135.415 40.418L123.175 23.318L121.548 24.482L133.788 41.582L135.415 40.418ZM121.655 23.1929L112.34 32.5079L113.754 33.9221L123.069 24.6071L121.655 23.1929ZM112.047 33.215V41H114.047V33.215H112.047ZM113.047 40H111.382V42H113.047V40ZM112.382 41V9.68H110.382V41H112.382ZM111.382 10.68H113.047V8.68H111.382V10.68Z" fill="#6ED2BA"/>
<path d="M44.455 89.955V58.635H46.21L68.08 79.92V58.635H69.745V89.955H44.455ZM89.9605 58.005C92.3005 58.005 94.4605 58.59 96.4405 59.76C98.4205 60.9 99.9805 62.46 101.121 64.44C102.291 66.42 102.876 68.58 102.876 70.92V77.76C102.876 80.1 102.291 82.26 101.121 84.24C99.9805 86.22 98.4205 87.795 96.4405 88.965C94.4605 90.105 92.3005 90.675 89.9605 90.675C87.6205 90.675 85.4605 90.105 83.4805 88.965C81.5005 87.795 79.9255 86.22 78.7555 84.24C77.6155 82.26 77.0455 80.1 77.0455 77.76V70.92C77.0455 68.58 77.6155 66.42 78.7555 64.44C79.9255 62.46 81.5005 60.9 83.4805 59.76C85.4605 58.59 87.6205 58.005 89.9605 58.005ZM78.7105 77.76C78.7105 79.8 79.2055 81.69 80.1955 83.43C81.2155 85.14 82.5805 86.505 84.2905 87.525C86.0305 88.515 87.9205 89.01 89.9605 89.01C92.0005 89.01 93.8755 88.515 95.5855 87.525C97.3255 86.505 98.6905 85.14 99.6805 83.43C100.701 81.69 101.211 79.8 101.211 77.76V70.92C101.211 68.88 100.701 67.005 99.6805 65.295C98.6905 63.555 97.3255 62.19 95.5855 61.2C93.8755 60.18 92.0005 59.67 89.9605 59.67C87.9205 59.67 86.0305 60.18 84.2905 61.2C82.5805 62.19 81.2155 63.555 80.1955 65.295C79.2055 67.005 78.7105 68.88 78.7105 70.92V77.76ZM135.916 58.68V60.345H124.081V90H122.461V60.345H110.626V58.68H135.916ZM145.782 58.68H167.832V60.345H147.447V73.035H165.177V74.7H147.447V88.335H167.832V90H145.782V58.68ZM190.567 75.015C188.017 74.505 185.932 73.95 184.312 73.35C182.722 72.72 181.462 71.88 180.532 70.83C179.632 69.75 179.182 68.37 179.182 66.69C179.182 64.95 179.632 63.42 180.532 62.1C181.462 60.78 182.752 59.76 184.402 59.04C186.082 58.32 188.017 57.96 190.207 57.96C192.307 57.96 194.227 58.41 195.967 59.31C197.737 60.18 199.132 61.41 200.152 63C201.172 64.59 201.682 66.405 201.682 68.445H200.017C200.017 66.675 199.582 65.115 198.712 63.765C197.842 62.415 196.657 61.38 195.157 60.66C193.657 59.91 191.992 59.535 190.162 59.535C188.542 59.535 187.027 59.79 185.617 60.3C184.207 60.81 183.052 61.59 182.152 62.64C181.282 63.69 180.847 65.01 180.847 66.6C180.847 68.04 181.267 69.195 182.107 70.065C182.947 70.905 184.042 71.55 185.392 72C186.742 72.45 188.632 72.93 191.062 73.44C193.522 73.95 195.427 74.445 196.777 74.925C198.157 75.375 199.312 76.14 200.242 77.22C201.202 78.3 201.682 79.815 201.682 81.765C201.682 83.715 201.157 85.365 200.107 86.715C199.087 88.035 197.722 89.025 196.012 89.685C194.302 90.345 192.442 90.675 190.432 90.675C187.942 90.675 185.752 90.21 183.862 89.28C181.972 88.35 180.517 87.045 179.497 85.365C178.507 83.655 178.012 81.705 178.012 79.515H179.677C179.677 81.435 180.097 83.115 180.937 84.555C181.807 85.995 183.052 87.12 184.672 87.93C186.292 88.71 188.212 89.1 190.432 89.1C193.192 89.1 195.472 88.44 197.272 87.12C199.102 85.8 200.017 84 200.017 81.72C200.017 80.16 199.627 78.96 198.847 78.12C198.067 77.28 197.077 76.68 195.877 76.32C194.707 75.93 192.937 75.495 190.567 75.015Z" fill="#F8D57E"/>
<path d="M44.455 89.955H43.455V90.955H44.455V89.955ZM44.455 58.635V57.635H43.455V58.635H44.455ZM46.21 58.635L46.9075 57.9184L46.6163 57.635H46.21V58.635ZM68.08 79.92L67.3825 80.6366L69.08 82.2887V79.92H68.08ZM68.08 58.635V57.635H67.08V58.635H68.08ZM69.745 58.635H70.745V57.635H69.745V58.635ZM69.745 89.955V90.955H70.745V89.955H69.745ZM45.455 89.955V58.635H43.455V89.955H45.455ZM44.455 59.635H46.21V57.635H44.455V59.635ZM45.5125 59.3516L67.3825 80.6366L68.7775 79.2034L46.9075 57.9184L45.5125 59.3516ZM69.08 79.92V58.635H67.08V79.92H69.08ZM68.08 59.635H69.745V57.635H68.08V59.635ZM68.745 58.635V89.955H70.745V58.635H68.745ZM69.745 88.955H44.455V90.955H69.745V88.955ZM96.4405 59.76L95.9318 60.621L95.9416 60.6266L96.4405 59.76ZM101.121 64.44L100.254 64.939L100.26 64.9487L101.121 64.44ZM101.121 84.24L100.26 83.7312L100.254 83.741L101.121 84.24ZM96.4405 88.965L96.9395 89.8317L96.9493 89.8259L96.4405 88.965ZM83.4805 88.965L82.9718 89.826L82.9816 89.8316L83.4805 88.965ZM78.7555 84.24L77.8889 84.739L77.8946 84.7487L78.7555 84.24ZM78.7555 64.44L77.8946 63.9312L77.8889 63.941L78.7555 64.44ZM83.4805 59.76L83.9795 60.6267L83.9893 60.6209L83.4805 59.76ZM80.1955 83.43L79.3264 83.9245L79.3315 83.9335L79.3367 83.9423L80.1955 83.43ZM84.2905 87.525L83.7783 88.3838L83.7871 88.3891L83.796 88.3942L84.2905 87.525ZM95.5855 87.525L96.0866 88.3904L96.0913 88.3877L95.5855 87.525ZM99.6805 83.43L98.8178 82.9243L98.8151 82.929L99.6805 83.43ZM99.6805 65.295L98.8114 65.7895L98.8165 65.7985L98.8217 65.8073L99.6805 65.295ZM95.5855 61.2L95.0733 62.0588L95.0821 62.0641L95.091 62.0692L95.5855 61.2ZM84.2905 61.2L84.7916 62.0654L84.7963 62.0627L84.2905 61.2ZM80.1955 65.295L79.3328 64.7893L79.3301 64.794L80.1955 65.295ZM89.9605 59.005C92.1249 59.005 94.1087 59.5436 95.9318 60.6209L96.9493 58.8991C94.8124 57.6364 92.4762 57.005 89.9605 57.005V59.005ZM95.9416 60.6266C97.7688 61.6786 99.2019 63.1118 100.254 64.939L101.987 63.941C100.759 61.8082 99.0723 60.1214 96.9395 58.8934L95.9416 60.6266ZM100.26 64.9487C101.337 66.7718 101.876 68.7557 101.876 70.92H103.876C103.876 68.4043 103.244 66.0681 101.981 63.9313L100.26 64.9487ZM101.876 70.92V77.76H103.876V70.92H101.876ZM101.876 77.76C101.876 79.9243 101.337 81.9081 100.26 83.7313L101.981 84.7487C103.244 82.6119 103.876 80.2757 103.876 77.76H101.876ZM100.254 83.741C99.2006 85.5705 97.7643 87.0212 95.9318 88.1041L96.9493 89.8259C99.0768 88.5688 100.76 86.8695 101.987 84.739L100.254 83.741ZM95.9416 88.0984C94.1172 89.1488 92.1299 89.675 89.9605 89.675V91.675C92.4712 91.675 94.8039 91.0612 96.9395 89.8316L95.9416 88.0984ZM89.9605 89.675C87.7912 89.675 85.8039 89.1488 83.9795 88.0984L82.9816 89.8316C85.1172 91.0612 87.4499 91.675 89.9605 91.675V89.675ZM83.9893 88.1041C82.1545 87.0199 80.7007 85.566 79.6165 83.7313L77.8946 84.7487C79.1504 86.874 80.8466 88.5701 82.9718 89.8259L83.9893 88.1041ZM79.6222 83.741C78.5717 81.9166 78.0455 79.9293 78.0455 77.76H76.0455C76.0455 80.2707 76.6594 82.6034 77.8889 84.739L79.6222 83.741ZM78.0455 77.76V70.92H76.0455V77.76H78.0455ZM78.0455 70.92C78.0455 68.7507 78.5717 66.7634 79.6222 64.939L77.8889 63.941C76.6594 66.0766 76.0455 68.4093 76.0455 70.92H78.0455ZM79.6165 64.9487C80.6993 63.1162 82.1501 61.6799 83.9795 60.6266L82.9816 58.8934C80.851 60.1201 79.1518 61.8038 77.8946 63.9313L79.6165 64.9487ZM83.9893 60.6209C85.8124 59.5436 87.7962 59.005 89.9605 59.005V57.005C87.4449 57.005 85.1087 57.6364 82.9718 58.8991L83.9893 60.6209ZM77.7105 77.76C77.7105 79.9699 78.2489 82.0308 79.3264 83.9245L81.0647 82.9355C80.1622 81.3492 79.7105 79.6301 79.7105 77.76H77.7105ZM79.3367 83.9423C80.4417 85.7947 81.9258 87.2788 83.7783 88.3838L84.8028 86.6662C83.2353 85.7312 81.9894 84.4853 81.0544 82.9177L79.3367 83.9423ZM83.796 88.3942C85.6897 89.4716 87.7506 90.01 89.9605 90.01V88.01C88.0905 88.01 86.3714 87.5584 84.7851 86.6558L83.796 88.3942ZM89.9605 90.01C92.1705 90.01 94.2192 89.4715 96.0866 88.3904L95.0845 86.6596C93.5319 87.5585 91.8306 88.01 89.9605 88.01V90.01ZM96.0913 88.3877C97.9772 87.2822 99.4675 85.7939 100.546 83.931L98.8151 82.929C97.9136 84.4861 96.6739 85.7278 95.0798 86.6623L96.0913 88.3877ZM100.543 83.9357C101.654 82.0405 102.211 79.9756 102.211 77.76H100.211C100.211 79.6244 99.7469 81.3395 98.8178 82.9243L100.543 83.9357ZM102.211 77.76V70.92H100.211V77.76H102.211ZM102.211 70.92C102.211 68.7043 101.654 66.6516 100.539 64.7827L98.8217 65.8073C99.747 67.3584 100.211 69.0557 100.211 70.92H102.211ZM100.55 64.8005C99.4708 62.9042 97.9764 61.4098 96.0801 60.3308L95.091 62.0692C96.6747 62.9702 97.9103 64.2058 98.8114 65.7895L100.55 64.8005ZM96.0978 60.3412C94.229 59.2264 92.1763 58.67 89.9605 58.67V60.67C91.8248 60.67 93.5221 61.1336 95.0733 62.0588L96.0978 60.3412ZM89.9605 58.67C87.7449 58.67 85.68 59.2263 83.7848 60.3373L84.7963 62.0627C86.3811 61.1337 88.0962 60.67 89.9605 60.67V58.67ZM83.7895 60.3346C81.9267 61.4131 80.4384 62.9034 79.3328 64.7893L81.0582 65.8007C81.9927 64.2066 83.2344 62.9669 84.7916 62.0654L83.7895 60.3346ZM79.3301 64.794C78.249 66.6613 77.7105 68.71 77.7105 70.92H79.7105C79.7105 69.05 80.1621 67.3487 81.061 65.796L79.3301 64.794ZM77.7105 70.92V77.76H79.7105V70.92H77.7105ZM135.916 58.68H136.916V57.68H135.916V58.68ZM135.916 60.345V61.345H136.916V60.345H135.916ZM124.081 60.345V59.345H123.081V60.345H124.081ZM124.081 90V91H125.081V90H124.081ZM122.461 90H121.461V91H122.461V90ZM122.461 60.345H123.461V59.345H122.461V60.345ZM110.626 60.345H109.626V61.345H110.626V60.345ZM110.626 58.68V57.68H109.626V58.68H110.626ZM134.916 58.68V60.345H136.916V58.68H134.916ZM135.916 59.345H124.081V61.345H135.916V59.345ZM123.081 60.345V90H125.081V60.345H123.081ZM124.081 89H122.461V91H124.081V89ZM123.461 90V60.345H121.461V90H123.461ZM122.461 59.345H110.626V61.345H122.461V59.345ZM111.626 60.345V58.68H109.626V60.345H111.626ZM110.626 59.68H135.916V57.68H110.626V59.68ZM145.782 58.68V57.68H144.782V58.68H145.782ZM167.832 58.68H168.832V57.68H167.832V58.68ZM167.832 60.345V61.345H168.832V60.345H167.832ZM147.447 60.345V59.345H146.447V60.345H147.447ZM147.447 73.035H146.447V74.035H147.447V73.035ZM165.177 73.035H166.177V72.035H165.177V73.035ZM165.177 74.7V75.7H166.177V74.7H165.177ZM147.447 74.7V73.7H146.447V74.7H147.447ZM147.447 88.335H146.447V89.335H147.447V88.335ZM167.832 88.335H168.832V87.335H167.832V88.335ZM167.832 90V91H168.832V90H167.832ZM145.782 90H144.782V91H145.782V90ZM145.782 59.68H167.832V57.68H145.782V59.68ZM166.832 58.68V60.345H168.832V58.68H166.832ZM167.832 59.345H147.447V61.345H167.832V59.345ZM146.447 60.345V73.035H148.447V60.345H146.447ZM147.447 74.035H165.177V72.035H147.447V74.035ZM164.177 73.035V74.7H166.177V73.035H164.177ZM165.177 73.7H147.447V75.7H165.177V73.7ZM146.447 74.7V88.335H148.447V74.7H146.447ZM147.447 89.335H167.832V87.335H147.447V89.335ZM166.832 88.335V90H168.832V88.335H166.832ZM167.832 89H145.782V91H167.832V89ZM146.782 90V58.68H144.782V90H146.782ZM190.567 75.015L190.766 74.0349L190.763 74.0344L190.567 75.015ZM184.312 73.35L183.944 74.2797L183.954 74.2838L183.965 74.2877L184.312 73.35ZM180.532 70.83L179.764 71.4702L179.774 71.4818L179.784 71.493L180.532 70.83ZM180.532 62.1L179.715 61.524L179.71 61.5303L179.706 61.5367L180.532 62.1ZM184.402 59.04L184.008 58.1208L184.002 58.1235L184.402 59.04ZM195.967 59.31L195.508 60.1982L195.517 60.2029L195.526 60.2074L195.967 59.31ZM200.152 63L200.994 62.46L200.152 63ZM201.682 68.445V69.445H202.682V68.445H201.682ZM200.017 68.445H199.017V69.445H200.017V68.445ZM198.712 63.765L199.553 63.2233L198.712 63.765ZM195.157 60.66L194.71 61.5544L194.717 61.558L194.724 61.5615L195.157 60.66ZM185.617 60.3L185.277 59.3596L185.617 60.3ZM182.152 62.64L181.393 61.9892L181.387 61.9955L181.382 62.002L182.152 62.64ZM182.107 70.065L181.388 70.7596L181.394 70.7659L181.4 70.7721L182.107 70.065ZM185.392 72L185.076 72.9487L185.392 72ZM191.062 73.44L190.857 74.4187L190.859 74.4192L191.062 73.44ZM196.777 74.925L196.442 75.8672L196.455 75.8716L196.467 75.8757L196.777 74.925ZM200.242 77.22L199.484 77.8725L199.49 77.8785L199.495 77.8844L200.242 77.22ZM200.107 86.715L199.318 86.1011L199.316 86.1036L200.107 86.715ZM196.012 89.685L196.372 90.6179L196.012 89.685ZM179.497 85.365L178.632 85.866L178.637 85.8751L178.642 85.884L179.497 85.365ZM178.012 79.515V78.515H177.012V79.515H178.012ZM179.677 79.515H180.677V78.515H179.677V79.515ZM180.937 84.555L180.073 85.0589L180.077 85.0655L180.081 85.0721L180.937 84.555ZM184.672 87.93L184.225 88.8244L184.232 88.8278L184.238 88.831L184.672 87.93ZM197.272 87.12L196.687 86.3089L196.681 86.3136L197.272 87.12ZM198.847 78.12L198.114 78.8004V78.8005L198.847 78.12ZM195.877 76.32L195.561 77.2687L195.575 77.2735L195.59 77.2778L195.877 76.32ZM190.763 74.0344C188.242 73.5301 186.212 72.9874 184.66 72.4123L183.965 74.2877C185.652 74.9126 187.793 75.4799 190.371 75.9956L190.763 74.0344ZM184.681 72.4203C183.205 71.8356 182.086 71.0765 181.281 70.167L179.784 71.493C180.838 72.6835 182.239 73.6044 183.944 74.2797L184.681 72.4203ZM181.3 70.1898C180.578 69.323 180.182 68.1837 180.182 66.69H178.182C178.182 68.5563 178.686 70.177 179.764 71.4702L181.3 70.1898ZM180.182 66.69C180.182 65.1322 180.582 63.8024 181.358 62.6633L179.706 61.5367C178.683 63.0376 178.182 64.7678 178.182 66.69H180.182ZM181.35 62.676C182.162 61.5223 183.3 60.612 184.802 59.9565L184.002 58.1235C182.204 58.908 180.762 60.0377 179.715 61.524L181.35 62.676ZM184.796 59.9591C186.33 59.302 188.126 58.96 190.207 58.96V56.96C187.908 56.96 185.835 57.338 184.008 58.1209L184.796 59.9591ZM190.207 58.96C192.159 58.96 193.92 59.3769 195.508 60.1982L196.427 58.4218C194.534 57.4431 192.455 56.96 190.207 56.96V58.96ZM195.526 60.2074C197.14 61.0007 198.393 62.1103 199.311 63.54L200.994 62.46C199.871 60.7097 198.334 59.3593 196.408 58.4125L195.526 60.2074ZM199.311 63.54C200.219 64.9559 200.682 66.5805 200.682 68.445H202.682C202.682 66.2295 202.126 64.2241 200.994 62.46L199.311 63.54ZM201.682 67.445H200.017V69.445H201.682V67.445ZM201.017 68.445C201.017 66.5032 200.537 64.7511 199.553 63.2233L197.872 64.3067C198.627 65.4789 199.017 66.8468 199.017 68.445H201.017ZM199.553 63.2233C198.579 61.7122 197.25 60.5554 195.59 59.7585L194.724 61.5615C196.064 62.2046 197.105 63.1178 197.872 64.3067L199.553 63.2233ZM195.604 59.7656C193.953 58.94 192.133 58.535 190.162 58.535V60.535C191.851 60.535 193.361 60.88 194.71 61.5544L195.604 59.7656ZM190.162 58.535C188.436 58.535 186.805 58.8071 185.277 59.3596L185.957 61.2404C187.25 60.7729 188.649 60.535 190.162 60.535V58.535ZM185.277 59.3596C183.719 59.9233 182.415 60.7972 181.393 61.9892L182.911 63.2908C183.69 62.3828 184.696 61.6967 185.957 61.2404L185.277 59.3596ZM181.382 62.002C180.34 63.2604 179.847 64.8177 179.847 66.6H181.847C181.847 65.2023 182.225 64.1196 182.922 63.278L181.382 62.002ZM179.847 66.6C179.847 68.2464 180.334 69.6684 181.388 70.7596L182.827 69.3704C182.2 68.7216 181.847 67.8336 181.847 66.6H179.847ZM181.4 70.7721C182.37 71.7415 183.608 72.4592 185.076 72.9487L185.708 71.0513C184.477 70.6408 183.525 70.0685 182.814 69.3579L181.4 70.7721ZM185.076 72.9487C186.479 73.4165 188.412 73.9057 190.857 74.4187L191.268 72.4613C188.852 71.9543 187.005 71.4835 185.708 71.0513L185.076 72.9487ZM190.859 74.4192C193.302 74.9257 195.156 75.4098 196.442 75.8672L197.112 73.9828C195.699 73.4802 193.742 72.9743 191.265 72.4608L190.859 74.4192ZM196.467 75.8757C197.677 76.2702 198.676 76.9336 199.484 77.8725L201 76.5675C199.948 75.3464 198.638 74.4798 197.087 73.9743L196.467 75.8757ZM199.495 77.8844C200.243 78.7256 200.682 79.9734 200.682 81.765H202.682C202.682 79.6566 202.162 77.8744 200.99 76.5556L199.495 77.8844ZM200.682 81.765C200.682 83.5253 200.213 84.9508 199.318 86.1011L200.897 87.3289C202.102 85.7792 202.682 83.9047 202.682 81.765H200.682ZM199.316 86.1036C198.418 87.265 197.209 88.1511 195.652 88.7521L196.372 90.6179C198.235 89.8989 199.756 88.805 200.898 87.3264L199.316 86.1036ZM195.652 88.7521C194.068 89.3636 192.331 89.675 190.432 89.675V91.675C192.553 91.675 194.537 91.3264 196.372 90.6179L195.652 88.7521ZM190.432 89.675C188.068 89.675 186.033 89.2339 184.304 88.3827L183.421 90.1773C185.471 91.1861 187.817 91.675 190.432 91.675V89.675ZM184.304 88.3827C182.572 87.5306 181.266 86.3513 180.352 84.846L178.642 85.884C179.768 87.7387 181.372 89.1694 183.421 90.1773L184.304 88.3827ZM180.363 84.864C179.47 83.3223 179.012 81.5486 179.012 79.515H177.012C177.012 81.8614 177.544 83.9877 178.632 85.866L180.363 84.864ZM178.012 80.515H179.677V78.515H178.012V80.515ZM178.677 79.515C178.677 81.5848 179.131 83.444 180.073 85.0589L181.801 84.0511C181.063 82.786 180.677 81.2852 180.677 79.515H178.677ZM180.081 85.0721C181.057 86.6865 182.449 87.9366 184.225 88.8244L185.119 87.0356C183.655 86.3034 182.558 85.3035 181.793 84.0379L180.081 85.0721ZM184.238 88.831C186.022 89.6896 188.096 90.1 190.432 90.1V88.1C188.328 88.1 186.563 87.7304 185.106 87.029L184.238 88.831ZM190.432 90.1C193.354 90.1 195.855 89.3994 197.864 87.9264L196.681 86.3136C195.089 87.4806 193.031 88.1 190.432 88.1V90.1ZM197.857 87.931C199.951 86.4207 201.017 84.3173 201.017 81.72H199.017C199.017 83.6827 198.253 85.1793 196.687 86.309L197.857 87.931ZM201.017 81.72C201.017 80 200.586 78.5226 199.58 77.4395L198.114 78.8005C198.669 79.3974 199.017 80.32 199.017 81.72H201.017ZM199.58 77.4396C198.668 76.4571 197.519 75.7684 196.165 75.3622L195.59 77.2778C196.636 77.5916 197.467 78.1029 198.114 78.8004L199.58 77.4396ZM196.193 75.3713C194.964 74.9615 193.145 74.5169 190.766 74.0349L190.369 75.9951C192.729 76.4731 194.451 76.8985 195.561 77.2687L196.193 75.3713Z" fill="#F8D57E"/>
</svg>
