<svg width="13" height="23" viewBox="0 0 13 23" fill="none" xmlns="http://www.w3.org/2000/svg">
<path d="M0.514723 12.6786L9.56425 21.7121C9.71289 21.862 9.88972 21.9809 10.0846 22.0621C10.2794 22.1433 10.4884 22.1851 10.6994 22.1851C10.9105 22.1851 11.1195 22.1433 11.3143 22.0621C11.5092 21.9809 11.686 21.862 11.8346 21.7121C12.1324 21.4126 12.2996 21.0073 12.2996 20.5849C12.2996 20.1625 12.1324 19.7573 11.8346 19.4577L3.92029 11.4634L11.8346 3.5491C12.1324 3.24954 12.2996 2.8443 12.2996 2.42191C12.2996 1.99951 12.1324 1.59428 11.8346 1.29471C11.6866 1.14364 11.51 1.02345 11.3151 0.941118C11.1202 0.858784 10.911 0.815937 10.6994 0.815058C10.4879 0.815937 10.2786 0.858784 10.0838 0.941118C9.88892 1.02345 9.71233 1.14364 9.56426 1.29471L0.514723 10.3283C0.352431 10.478 0.22291 10.6597 0.134322 10.8619C0.0457335 11.0642 -1.9079e-06 11.2826 -1.9272e-06 11.5034C-1.94651e-06 11.7242 0.0457334 11.9426 0.134322 12.1449C0.22291 12.3471 0.352431 12.5289 0.514723 12.6786Z" fill="#2C2543"/>
</svg>
