<svg width="20" height="20" viewBox="0 0 20 20" fill="none" xmlns="http://www.w3.org/2000/svg">
<path d="M10.3758 0C5.08239 0 0.751465 4.5 0.751465 10C0.751465 15.5 5.08239 20 10.3758 20C15.6691 20 20 15.5 20 10C20 4.5 15.6691 0 10.3758 0ZM13.9367 12.3C14.3217 12.7 14.3217 13.3 13.9367 13.7C13.5518 14.1 12.9743 14.1 12.5893 13.7L10.3758 11.4L8.16216 13.7C7.77719 14.1 7.19974 14.1 6.81476 13.7C6.42979 13.3 6.42979 12.7 6.81476 12.3L9.02835 10L6.81476 7.7C6.42979 7.3 6.42979 6.7 6.81476 6.3C7.19974 5.9 7.77719 5.9 8.16216 6.3L10.3758 8.6L12.5893 6.3C12.9743 5.9 13.5518 5.9 13.9367 6.3C14.3217 6.7 14.3217 7.3 13.9367 7.7L11.7232 10L13.9367 12.3Z" fill="white"/>
</svg>
