<svg width="30" height="31" viewBox="0 0 30 31" fill="none" xmlns="http://www.w3.org/2000/svg">
<path fill-rule="evenodd" clip-rule="evenodd" d="M15 30.1428C23.2845 30.1428 30 23.4273 30 15.1428C30 6.85832 23.2845 0.142822 15 0.142822C6.7155 0.142822 0 6.85832 0 15.1428C0 23.4273 6.7155 30.1428 15 30.1428ZM20.304 9.83882C20.5857 9.55756 20.9675 9.39971 21.3656 9.39999C21.7636 9.40027 22.1452 9.55866 22.4265 9.84032C22.7078 10.122 22.8656 10.5038 22.8653 10.9019C22.8651 11.2999 22.7067 11.6816 22.425 11.9628L13.9455 20.4423L13.9395 20.4483C13.8005 20.5881 13.6353 20.699 13.4533 20.7747C13.2713 20.8504 13.0761 20.8894 12.879 20.8894C12.6819 20.8894 12.4867 20.8504 12.3047 20.7747C12.1227 20.699 11.9575 20.5881 11.8185 20.4483L11.8125 20.4423L7.575 16.2048C7.43174 16.0665 7.31746 15.9009 7.23885 15.7179C7.16023 15.5349 7.11886 15.3381 7.11712 15.1389C7.11539 14.9398 7.15335 14.7422 7.22877 14.5579C7.30419 14.3735 7.41557 14.2061 7.55641 14.0652C7.69725 13.9244 7.86472 13.813 8.04907 13.7376C8.23341 13.6622 8.43093 13.6242 8.6301 13.6259C8.82927 13.6277 9.0261 13.6691 9.20911 13.7477C9.39211 13.8263 9.55763 13.9406 9.696 14.0838L12.879 17.2653L20.304 9.84032V9.83882Z" fill="#6ED2BA" fill-opacity="0.23"/>
<path d="M20.054 9.73516L20.1273 9.66192C20.4559 9.33381 20.9014 9.14966 21.3657 9.14999C21.8301 9.15032 22.2753 9.33509 22.6034 9.66367C22.9315 9.99225 23.1157 10.4377 23.1153 10.9021C23.115 11.3664 22.9303 11.8115 22.6018 12.1396L20.054 9.73516ZM20.054 9.73516V9.73677L12.879 16.9118L9.8742 13.9085C9.7131 13.7421 9.52057 13.6094 9.30778 13.518C9.09427 13.4263 8.86464 13.378 8.63227 13.376C8.39991 13.3739 8.16947 13.4182 7.9544 13.5062C7.73933 13.5942 7.54394 13.7241 7.37963 13.8885C7.21532 14.0528 7.08538 14.2482 6.99738 14.4632C6.90939 14.6783 6.86511 14.9087 6.86713 15.1411C6.86915 15.3735 6.91743 15.6031 7.00914 15.8166C7.10055 16.0294 7.23329 16.2219 7.39966 16.383L11.6357 20.6191L11.6357 20.6191L11.6412 20.6246L20.054 9.73516ZM14.1223 20.6191L22.6017 12.1397L11.6417 20.6251C11.8038 20.788 11.9965 20.9173 12.2087 21.0055C12.4211 21.0939 12.6489 21.1394 12.879 21.1394C13.1091 21.1394 13.3369 21.0939 13.5493 21.0055C13.7617 20.9172 13.9546 20.7877 14.1168 20.6246L14.1223 20.6191L14.1223 20.6191ZM29.75 15.1428C29.75 23.2893 23.1464 29.8928 15 29.8928C6.85357 29.8928 0.25 23.2893 0.25 15.1428C0.25 6.99639 6.85357 0.392822 15 0.392822C23.1464 0.392822 29.75 6.99639 29.75 15.1428Z" stroke="#6ED2BA" stroke-opacity="0.23" stroke-width="0.5"/>
</svg>
