<svg width="30" height="31" viewBox="0 0 30 31" fill="none" xmlns="http://www.w3.org/2000/svg">
<path fill-rule="evenodd" clip-rule="evenodd" d="M15 30.1428C23.2845 30.1428 30 23.4273 30 15.1428C30 6.85832 23.2845 0.142822 15 0.142822C6.7155 0.142822 0 6.85832 0 15.1428C0 23.4273 6.7155 30.1428 15 30.1428ZM20.304 9.83882C20.5857 9.55756 20.9675 9.39971 21.3656 9.39999C21.7636 9.40027 22.1452 9.55866 22.4265 9.84032C22.7078 10.122 22.8656 10.5038 22.8653 10.9019C22.8651 11.2999 22.7067 11.6816 22.425 11.9628L13.9455 20.4423L13.9395 20.4483C13.8005 20.5881 13.6353 20.699 13.4533 20.7747C13.2713 20.8504 13.0761 20.8894 12.879 20.8894C12.6819 20.8894 12.4867 20.8504 12.3047 20.7747C12.1227 20.699 11.9575 20.5881 11.8185 20.4483L11.8125 20.4423L7.575 16.2048C7.43173 16.0665 7.31746 15.9009 7.23885 15.7179C7.16023 15.5349 7.11886 15.3381 7.11712 15.1389C7.11539 14.9398 7.15335 14.7422 7.22877 14.5579C7.30419 14.3735 7.41557 14.2061 7.55641 14.0652C7.69725 13.9244 7.86472 13.813 8.04907 13.7376C8.23341 13.6622 8.43093 13.6242 8.6301 13.6259C8.82927 13.6277 9.0261 13.6691 9.20911 13.7477C9.39211 13.8263 9.55763 13.9406 9.696 14.0838L12.879 17.2653L20.304 9.84032V9.83882Z" fill="#6ED2BA"/>
</svg>
