<svg width="13" height="18" viewBox="0 0 13 18" fill="none" xmlns="http://www.w3.org/2000/svg">
<path d="M12.0168 6.95521L11.7456 15.1647C11.7225 15.8677 11.4263 16.5342 10.9199 17.0225C10.4135 17.5107 9.73677 17.7825 9.0333 17.78H3.87994C3.17693 17.7825 2.50057 17.5111 1.99425 17.0234C1.48792 16.5357 1.19144 15.87 1.16764 15.1674L0.896414 6.95521C0.89048 6.77537 0.956228 6.60054 1.0792 6.46918C1.20216 6.33782 1.37228 6.26069 1.55211 6.25476C1.73195 6.24882 1.90678 6.31457 2.03814 6.43754C2.1695 6.5605 2.24663 6.73062 2.25256 6.91045L2.52379 15.1219C2.5373 15.4725 2.68612 15.8042 2.939 16.0473C3.19187 16.2904 3.52913 16.4261 3.87994 16.4259H9.0333C9.38456 16.4261 9.72221 16.29 9.97516 16.0463C10.2281 15.8026 10.3766 15.4702 10.3895 15.1192L10.6607 6.91045C10.6666 6.73062 10.7437 6.5605 10.8751 6.43754C11.0065 6.31457 11.1813 6.24882 11.3611 6.25476C11.541 6.26069 11.7111 6.33782 11.8341 6.46918C11.957 6.60054 12.0228 6.77537 12.0168 6.95521ZM12.9139 4.22324C12.9139 4.40308 12.8425 4.57555 12.7153 4.70272C12.5882 4.82988 12.4157 4.90132 12.2358 4.90132H0.678074C0.498238 4.90132 0.325767 4.82988 0.198603 4.70272C0.0714396 4.57555 0 4.40308 0 4.22324C0 4.04341 0.0714396 3.87094 0.198603 3.74377C0.325767 3.61661 0.498238 3.54517 0.678074 3.54517H2.7801C2.99495 3.54575 3.20233 3.46637 3.36188 3.32249C3.52143 3.1786 3.62174 2.9805 3.64329 2.76674C3.69333 2.2653 3.92826 1.80044 4.30231 1.46274C4.67636 1.12505 5.16273 0.938698 5.66667 0.940009H7.24658C7.75051 0.938698 8.23689 1.12505 8.61094 1.46274C8.98498 1.80044 9.21991 2.2653 9.26995 2.76674C9.2915 2.9805 9.39182 3.1786 9.55137 3.32249C9.71092 3.46637 9.91829 3.54575 10.1331 3.54517H12.2352C12.415 3.54517 12.5875 3.61661 12.7146 3.74377C12.8418 3.87094 12.9132 4.04341 12.9132 4.22324H12.9139ZM4.82043 3.54517H8.09417C8.00507 3.34157 7.94679 3.12584 7.92126 2.90507C7.90446 2.73793 7.82622 2.58297 7.7017 2.47023C7.57718 2.35748 7.41524 2.29497 7.24726 2.2948H5.66734C5.49936 2.29497 5.33742 2.35748 5.2129 2.47023C5.08838 2.58297 5.01014 2.73793 4.99334 2.90507C4.96759 3.12587 4.90977 3.34161 4.82043 3.54517ZM5.50325 13.8187V8.04487C5.50325 7.86504 5.43181 7.69257 5.30465 7.5654C5.17748 7.43824 5.00501 7.3668 4.82518 7.3668C4.64534 7.3668 4.47287 7.43824 4.34571 7.5654C4.21854 7.69257 4.1471 7.86504 4.1471 8.04487V13.8214C4.1471 14.0012 4.21854 14.1737 4.34571 14.3009C4.47287 14.428 4.64534 14.4995 4.82518 14.4995C5.00501 14.4995 5.17748 14.428 5.30465 14.3009C5.43181 14.1737 5.50325 14.0012 5.50325 13.8214V13.8187ZM8.7675 13.8187V8.04487C8.7675 7.86504 8.69606 7.69257 8.5689 7.5654C8.44173 7.43824 8.26926 7.3668 8.08943 7.3668C7.90959 7.3668 7.73712 7.43824 7.60995 7.5654C7.48279 7.69257 7.41135 7.86504 7.41135 8.04487V13.8214C7.41135 14.0012 7.48279 14.1737 7.60995 14.3009C7.73712 14.428 7.90959 14.4995 8.08943 14.4995C8.26926 14.4995 8.44173 14.428 8.5689 14.3009C8.69606 14.1737 8.7675 14.0012 8.7675 13.8214V13.8187Z" fill="#EB4335"/>
</svg>
