<svg width="18" height="17" viewBox="0 0 18 17" fill="none" xmlns="http://www.w3.org/2000/svg">
<path d="M6.56129 7.89648C6.40123 7.73642 6.18414 7.6465 5.95779 7.6465C5.73143 7.6465 5.51435 7.73642 5.35429 7.89648C5.19423 8.05654 5.10431 8.27363 5.10431 8.49998C5.10431 8.72634 5.19423 8.94342 5.35429 9.10348L7.90429 11.6535C7.98371 11.7323 8.07791 11.7946 8.18147 11.8369C8.28503 11.8792 8.39592 11.9006 8.50779 11.9C8.62415 11.8963 8.73852 11.8687 8.84379 11.819C8.94907 11.7693 9.04301 11.6985 9.11979 11.611L15.0698 4.81098C15.2072 4.64041 15.2734 4.42339 15.2547 4.20517C15.236 3.98695 15.1338 3.78438 14.9693 3.63969C14.8049 3.495 14.591 3.41936 14.3722 3.42854C14.1533 3.43773 13.9465 3.53102 13.7948 3.68898L8.50779 9.80898L6.56129 7.89648Z" fill="black"/>
<path d="M16.1579 7.65C15.9324 7.65 15.7162 7.73955 15.5568 7.89896C15.3974 8.05837 15.3079 8.27457 15.3079 8.5C15.3079 10.3035 14.5914 12.0331 13.3162 13.3083C12.0409 14.5836 10.3113 15.3 8.50785 15.3C7.16492 15.2994 5.85225 14.9011 4.73535 14.1555C3.61845 13.4099 2.74733 12.3502 2.23186 11.1102C1.71638 9.8701 1.57962 8.50518 1.83882 7.18751C2.09803 5.86983 2.74159 4.65841 3.68835 3.706C4.31795 3.06798 5.06848 2.56194 5.89602 2.21749C6.72356 1.87305 7.61149 1.69712 8.50785 1.7C9.05138 1.7034 9.59292 1.76611 10.1228 1.887C10.2337 1.9213 10.3505 1.93253 10.4659 1.91998C10.5813 1.90743 10.6929 1.87138 10.7938 1.81405C10.8948 1.75672 10.9829 1.67932 11.0528 1.58663C11.1226 1.49394 11.1728 1.38791 11.2001 1.2751C11.2275 1.16228 11.2314 1.04506 11.2117 0.930665C11.192 0.816269 11.1491 0.707122 11.0856 0.609953C11.022 0.512783 10.9393 0.42965 10.8425 0.36568C10.7456 0.301709 10.6366 0.258256 10.5224 0.238C9.86203 0.0826563 9.18619 0.00281131 8.50785 0C6.82854 0.008724 5.18944 0.514693 3.7974 1.45405C2.40536 2.39342 1.32277 3.72407 0.68625 5.2781C0.0497261 6.83213 -0.112206 8.53988 0.220889 10.1859C0.553983 11.8318 1.36718 13.3422 2.55785 14.5265C4.13604 16.1054 6.27545 16.9948 8.50785 17C10.7622 17 12.9242 16.1045 14.5183 14.5104C16.1123 12.9163 17.0079 10.7543 17.0079 8.5C17.0079 8.27457 16.9183 8.05837 16.7589 7.89896C16.5995 7.73955 16.3833 7.65 16.1579 7.65Z" fill="black"/>
</svg>
