<svg width="13" height="16" viewBox="0 0 13 16" fill="none" xmlns="http://www.w3.org/2000/svg">
<path d="M11.993 14.3414H0.802668C0.590678 14.3414 0.387371 14.4256 0.237472 14.5755C0.0875722 14.7254 0.00335945 14.9287 0.00335945 15.1407C0.00335945 15.3527 0.0875722 15.556 0.237472 15.7059C0.387371 15.8558 0.590678 15.94 0.802668 15.94H11.993C12.205 15.94 12.4083 15.8558 12.5582 15.7059C12.7081 15.556 12.7923 15.3527 12.7923 15.1407C12.7923 14.9287 12.7081 14.7254 12.5582 14.5755C12.4083 14.4256 12.205 14.3414 11.993 14.3414ZM0.802668 12.7428H0.874606L4.20772 12.439C4.57284 12.4027 4.91434 12.2418 5.17488 11.9834L12.3687 4.78965C12.6479 4.49468 12.7988 4.10105 12.7883 3.69502C12.7778 3.289 12.6068 2.90369 12.3127 2.62352L10.1226 0.433418C9.83676 0.164927 9.4622 0.0108702 9.07018 0.000553727C8.67815 -0.00976277 8.29601 0.12438 7.99644 0.377466L0.802668 7.57124C0.544304 7.83179 0.383434 8.17328 0.347062 8.5384L0.00335945 11.8715C-0.00740806 11.9886 0.00778309 12.1066 0.0478499 12.2171C0.0879167 12.3277 0.151873 12.428 0.235159 12.511C0.309846 12.585 0.398422 12.6437 0.495808 12.6834C0.593194 12.7232 0.697473 12.7434 0.802668 12.7428ZM9.01156 1.55245L11.1937 3.73456L9.59506 5.29321L7.45291 3.15107L9.01156 1.55245ZM1.89772 8.67429L6.39783 4.20615L8.55596 6.36429L4.07983 10.8404L1.68191 11.0642L1.89772 8.67429Z" fill="black"/>
</svg>
