<svg width="15" height="14" viewBox="0 0 15 14" fill="none" xmlns="http://www.w3.org/2000/svg">
<path d="M14.2605 5.3484C14.3305 5.00777 14.0507 4.599 13.701 4.599L9.71405 4.05398L7.89545 0.51136C7.8255 0.375105 7.75556 0.306978 7.61567 0.23885C7.26594 0.0344684 6.84626 0.170723 6.63642 0.51136L4.88777 4.05398L0.900846 4.599C0.691008 4.599 0.551116 4.66713 0.48117 4.80338C0.201386 5.07589 0.201386 5.48466 0.48117 5.75717L3.34896 8.48226L2.6495 12.3655C2.6495 12.5018 2.6495 12.638 2.71944 12.7743C2.92928 13.1149 3.34896 13.2512 3.69869 13.0468L7.26594 11.2074L10.8332 13.0468C10.9031 13.1149 11.043 13.1149 11.1829 13.1149C11.2529 13.1149 11.2529 13.1149 11.3228 13.1149C11.6725 13.0468 11.9523 12.7062 11.8824 12.2974L11.1829 8.41413L14.0507 5.68904C14.1906 5.62091 14.2605 5.48466 14.2605 5.3484Z" fill="#F8D57E"/>
</svg>
