<svg width="6" height="11" viewBox="0 0 6 11" fill="none" xmlns="http://www.w3.org/2000/svg">
<path d="M5.16724 4.98326L1.19934 1.02237C1.13417 0.956662 1.05663 0.904509 0.971204 0.868918C0.885775 0.833327 0.794145 0.815002 0.701599 0.815002C0.609053 0.815002 0.517422 0.833327 0.431994 0.868918C0.346565 0.904509 0.269029 0.956662 0.203858 1.02237C0.0732881 1.15372 0 1.3314 0 1.51661C0 1.70181 0.0732881 1.87949 0.203858 2.01084L3.67402 5.51606L0.203858 8.98622C0.0732881 9.11757 0 9.29525 0 9.48045C0 9.66566 0.0732881 9.84334 0.203858 9.97469C0.268785 10.0409 0.346212 10.0936 0.431652 10.1297C0.517091 10.1658 0.608846 10.1846 0.701599 10.185C0.794352 10.1846 0.886106 10.1658 0.971546 10.1297C1.05699 10.0936 1.13441 10.0409 1.19934 9.97469L5.16724 6.0138C5.2384 5.94815 5.29519 5.86847 5.33404 5.77979C5.37288 5.69111 5.39293 5.59535 5.39293 5.49853C5.39293 5.40171 5.37288 5.30595 5.33404 5.21727C5.29519 5.12859 5.2384 5.04891 5.16724 4.98326Z" fill="#979797"/>
</svg>
