<svg width="18" height="18" viewBox="0 0 18 18" fill="none" xmlns="http://www.w3.org/2000/svg">
<g clip-path="url(#clip0_17_1637)">
<path d="M17.1338 9.16838C17.1338 8.43093 17.0755 7.89279 16.9493 7.33472H8.74217V10.6632H13.5596C13.4625 11.4904 12.938 12.7361 11.7725 13.5732L11.7561 13.6846L14.3511 15.7472L14.5308 15.7657C16.1819 14.201 17.1338 11.899 17.1338 9.16838Z" fill="#4285F4"/>
<path d="M8.74217 17.9381C11.1023 17.9381 13.0836 17.1408 14.5308 15.7656L11.7725 13.5731C11.0343 14.1013 10.0436 14.47 8.74217 14.47C6.4306 14.47 4.46868 12.9055 3.76931 10.7429L3.6668 10.7519L0.968552 12.8945L0.933266 12.9951C2.37071 15.925 5.32333 17.9381 8.74217 17.9381Z" fill="#34A853"/>
<path d="M3.76931 10.743C3.58478 10.1849 3.47798 9.58692 3.47798 8.96908C3.47798 8.35117 3.58478 7.75325 3.7596 7.19519L3.75472 7.07633L1.02265 4.89929L0.933266 4.94292C0.340828 6.15874 0.00088501 7.52406 0.00088501 8.96908C0.00088501 10.4141 0.340828 11.7793 0.933266 12.9952L3.76931 10.743Z" fill="#FBBC05"/>
<path d="M8.74217 3.46802C10.3836 3.46802 11.4908 4.19551 12.1221 4.80346L14.5891 2.33196C13.074 0.886946 11.1023 0 8.74217 0C5.32333 0 2.37071 2.01305 0.933266 4.94292L3.7596 7.19519C4.46868 5.03265 6.4306 3.46802 8.74217 3.46802Z" fill="#EB4335"/>
</g>
<defs>
<clipPath id="clip0_17_1637">
<rect width="17.1429" height="18" fill="white"/>
</clipPath>
</defs>
</svg>
