<svg width="18" height="16" viewBox="0 0 18 16" fill="none" xmlns="http://www.w3.org/2000/svg">
<path d="M3.52197 2C3.78719 2 4.04154 1.89464 4.22908 1.70711C4.41662 1.51957 4.52197 1.26522 4.52197 1C4.52197 0.734784 4.41662 0.48043 4.22908 0.292893C4.04154 0.105357 3.78719 0 3.52197 0H1.52197C1.25676 0 1.0024 0.105357 0.814866 0.292893C0.62733 0.48043 0.521973 0.734784 0.521973 1V15C0.521973 15.2652 0.62733 15.5196 0.814866 15.7071C1.0024 15.8946 1.25676 16 1.52197 16H3.52197C3.78719 16 4.04154 15.8946 4.22908 15.7071C4.41662 15.5196 4.52197 15.2652 4.52197 15C4.52197 14.7348 4.41662 14.4804 4.22908 14.2929C4.04154 14.1054 3.78719 14 3.52197 14H2.52197V2H3.52197ZM17.342 7.42L14.522 3.42C14.369 3.20441 14.137 3.05814 13.8765 3.01317C13.616 2.9682 13.3483 3.02818 13.132 3.18C13.0238 3.25579 12.9318 3.35224 12.8611 3.46381C12.7904 3.57537 12.7425 3.69982 12.7202 3.82998C12.6979 3.96015 12.7016 4.09344 12.7311 4.22217C12.7606 4.3509 12.8152 4.47252 12.892 4.58L14.612 7H6.52197C6.25676 7 6.0024 7.10536 5.81487 7.29289C5.62733 7.48043 5.52197 7.73478 5.52197 8C5.52197 8.26522 5.62733 8.51957 5.81487 8.70711C6.0024 8.89464 6.25676 9 6.52197 9H14.522L12.722 11.4C12.6432 11.5051 12.5859 11.6246 12.5533 11.7518C12.5207 11.879 12.5135 12.0114 12.532 12.1414C12.5506 12.2714 12.5946 12.3965 12.6615 12.5095C12.7284 12.6225 12.8169 12.7212 12.922 12.8C13.0951 12.9298 13.3056 13 13.522 13C13.6772 13 13.8303 12.9639 13.9692 12.8944C14.108 12.825 14.2288 12.7242 14.322 12.6L17.322 8.6C17.45 8.43087 17.521 8.22539 17.5246 8.01326C17.5282 7.80114 17.4642 7.59338 17.342 7.42Z" fill="#EB4335"/>
</svg>
