<svg width="14" height="14" viewBox="0 0 14 14" fill="none" xmlns="http://www.w3.org/2000/svg">
<path d="M5.88831 6.07145V7.07145H6.88831V6.07145H5.88831ZM5.88831 8.07145H6.88831V7.07145H5.88831V8.07145ZM7.88831 8.07145V7.07145H6.88831V8.07145H7.88831ZM7.88831 6.07145H6.88831V7.07145H7.88831V6.07145ZM6.88831 2.40955H8.88831C8.88831 1.30498 7.99288 0.409546 6.88831 0.409546V2.40955ZM6.88831 2.40955V0.409546C5.78374 0.409546 4.88831 1.30498 4.88831 2.40955H6.88831ZM6.88831 6.07145V2.40955H4.88831V6.07145H6.88831ZM2.20483 7.07145H5.88831V5.07145H2.20483V7.07145ZM2.20483 7.07145V5.07145C1.10026 5.07145 0.204834 5.96688 0.204834 7.07145H2.20483ZM2.20483 7.07145H0.204834C0.204834 8.17602 1.10026 9.07145 2.20483 9.07145V7.07145ZM5.88831 7.07145H2.20483V9.07145H5.88831V7.07145ZM6.88831 11.7334V8.07145H4.88831V11.7334H6.88831ZM6.88831 11.7334H4.88831C4.88831 12.8379 5.78374 13.7334 6.88831 13.7334V11.7334ZM6.88831 11.7334V13.7334C7.99288 13.7334 8.88831 12.8379 8.88831 11.7334H6.88831ZM6.88831 8.07145V11.7334H8.88831V8.07145H6.88831ZM11.5718 7.07145H7.88831V9.07145H11.5718V7.07145ZM11.5718 7.07145V9.07145C12.6763 9.07145 13.5718 8.17602 13.5718 7.07145H11.5718ZM11.5718 7.07145H13.5718C13.5718 5.96688 12.6763 5.07145 11.5718 5.07145V7.07145ZM7.88831 7.07145H11.5718V5.07145H7.88831V7.07145ZM6.88831 2.40955V6.07145H8.88831V2.40955H6.88831Z" fill="white"/>
</svg>
